<svg xmlns="http://www.w3.org/2000/svg" viewBox="0 0 750 500"><g id="freepik--background-simple--inject-2"><path d="M727.75,222.35c-.83-40.84-23.51-80.26-58.07-110.7-20.21-17.8-44.53-33.39-71.09-45.54C571,53.51,541.08,39.39,507.82,37.23a91.17,91.17,0,0,0-24.72,1.43c-31,6.53,30.36,29.83,38.38,33.24C435.71,46,346.94,19.6,253.18,22.08c-18.07.48-36.82,2.2-52.72,9.3s-28.19,20.78-25.82,34.35c2,11.21,12.66,23.74,2.62,32.5-2.87,2.51-6.95,4-10.94,5.28-20.51,6.6-42.65,10.06-62.08,18.45-30.08,13-50.62,36.9-60.13,62s-9.06,51.55-5.33,77.12c7,48.12,26.15,95.86,64.84,133.29,55.26,53.45,145.86,80.68,236.6,85.17C450,485,569.09,456.57,641.7,390.75c10.77-9.77,20.64-20.58,24.56-32.82s.81-26.2-11.24-34.24c-3.25-2.17-7.43-4.46-7.08-7.83.48-4.55,8.21-6.08,14.1-7,38.65-6.27,60.76-39.43,64.74-69.25A112,112,0,0,0,727.75,222.35Z" style="fill:#2E8B57"></path><path d="M727.75,222.35c-.83-40.84-23.51-80.26-58.07-110.7-20.21-17.8-44.53-33.39-71.09-45.54C571,53.51,541.08,39.39,507.82,37.23a91.17,91.17,0,0,0-24.72,1.43c-31,6.53,30.36,29.83,38.38,33.24C435.71,46,346.94,19.6,253.18,22.08c-18.07.48-36.82,2.2-52.72,9.3s-28.19,20.78-25.82,34.35c2,11.21,12.66,23.74,2.62,32.5-2.87,2.51-6.95,4-10.94,5.28-20.51,6.6-42.65,10.06-62.08,18.45-30.08,13-50.62,36.9-60.13,62s-9.06,51.55-5.33,77.12c7,48.12,26.15,95.86,64.84,133.29,55.26,53.45,145.86,80.68,236.6,85.17C450,485,569.09,456.57,641.7,390.75c10.77-9.77,20.64-20.58,24.56-32.82s.81-26.2-11.24-34.24c-3.25-2.17-7.43-4.46-7.08-7.83.48-4.55,8.21-6.08,14.1-7,38.65-6.27,60.76-39.43,64.74-69.25A112,112,0,0,0,727.75,222.35Z" style="fill:#fff;opacity:0.7000000000000001"></path></g><g id="freepik--Clouds--inject-2"><path d="M718.61,175.4h-272a.5.5,0,0,1-.49-.44.5.5,0,0,1,.38-.55l16.6-3.87a40,40,0,0,1,4.44-6.62c2.71-3.25,17.89-3.07,21.24-3,.16-1.32,1-5.16,5.09-11.54,4.7-7.32,22.81-4.44,26.72-3.72-.43-2.83-1.36-13.17,6.45-20.49,8.51-8,34.92-.93,39.2.29a40.78,40.78,0,0,1,6.72-15.92c6.27-8.77,21-15.63,43.75-8.6,21.41,6.63,37,32.82,39.7,37.63,4.13-6.55,8.66-10.26,13.45-11.06,4.33-.72,9,.94,13.77,4.93,9.69,8.08,16.16,32.39,16.92,35.34l18.26,6.64a.5.5,0,0,1,.32.56A.49.49,0,0,1,718.61,175.4Zm-267.68-1H715.77l-15.84-5.76a.5.5,0,0,1-.31-.35c-.07-.27-6.81-26.86-16.66-35.07-4.56-3.8-8.93-5.39-13-4.71-4.66.77-9.11,4.58-13.21,11.32a.43.43,0,0,1-.44.24.51.51,0,0,1-.43-.27c-.16-.31-16.44-30.75-39.53-37.9-22.19-6.87-36.57-.25-42.63,8.23a40.09,40.09,0,0,0-6.64,16,.47.47,0,0,1-.23.35.49.49,0,0,1-.41.06c-.3-.08-30.11-8.79-38.78-.67s-6.05,20.15-6,20.28a.5.5,0,0,1-.13.46.53.53,0,0,1-.46.14c-.22,0-21.6-4.33-26.4,3.14s-5,11.47-5,11.51a.51.51,0,0,1-.15.36.5.5,0,0,1-.37.14c-5.08-.16-18.74,0-20.91,2.62a38.71,38.71,0,0,0-4.42,6.64.5.5,0,0,1-.34.26Z" style="fill:#263238"></path><path d="M630,164.18a.5.5,0,0,1-.5-.46c0-.07-.49-7.71,8.2-10.61,7-2.33,14.93,2,17.83,3.81-2.79-11,.25-17.31.39-17.58a.5.5,0,0,1,.89.45c0,.06-3.23,6.72,0,18.15a.5.5,0,0,1-.77.54c-.1-.07-10-7.11-18.06-4.42s-7.52,9.52-7.51,9.59a.5.5,0,0,1-.46.53Z" style="fill:#263238"></path><path d="M533.52,156.89a.5.5,0,0,1-.4-.8l1.68-2.24c1.53-2,6.43-2.38,8.22-2.43-.36-2.24-1.13-10.13,4.76-15s15.15-.34,17.81,1.2l.52-11.5a.49.49,0,0,1,.52-.48.51.51,0,0,1,.48.53l-.56,12.34a.49.49,0,0,1-.77.39c-.11-.07-11-7-17.36-1.71s-4.34,14.55-4.32,14.64a.5.5,0,0,1-.48.62c-1.81,0-6.76.36-8,2l-1.68,2.24A.51.51,0,0,1,533.52,156.89Z" style="fill:#263238"></path><path d="M237.41,229.45H53.47A.5.5,0,0,1,53,229a.51.51,0,0,1,.38-.55l11.16-2.6a27.42,27.42,0,0,1,3-4.44c1.84-2.21,11.81-2.14,14.34-2.09.16-1,.8-3.6,3.45-7.72,3.15-4.9,14.93-3.17,18-2.63-.32-2.21-.76-8.88,4.45-13.77,5.72-5.36,23.11-.84,26.49.11a28,28,0,0,1,4.55-10.66c4.26-6,14.32-10.65,29.75-5.87,14.22,4.4,24.64,21.48,26.81,25.28,2.78-4.32,5.83-6.78,9.06-7.32,3-.5,6.16.64,9.44,3.37,6.51,5.42,10.87,21.56,11.48,23.9l12.26,4.46a.49.49,0,0,1,.32.56A.5.5,0,0,1,237.41,229.45Zm-179.6-1H234.57l-9.84-3.58a.51.51,0,0,1-.32-.35c0-.18-4.59-18.11-11.21-23.63-3-2.54-5.95-3.6-8.64-3.15-3.1.51-6.07,3.06-8.82,7.58a.47.47,0,0,1-.44.24.52.52,0,0,1-.43-.27c-.11-.21-11.09-20.74-26.63-25.55-14.92-4.61-24.59-.18-28.65,5.5A26.75,26.75,0,0,0,135.13,196a.51.51,0,0,1-.64.41c-.2-.06-20.28-5.92-26.07-.49s-4,13.48-4,13.56a.5.5,0,0,1-.13.46.52.52,0,0,1-.46.14c-.14,0-14.49-2.91-17.68,2.05s-3.34,7.67-3.34,7.7a.51.51,0,0,1-.15.36.54.54,0,0,1-.36.14c-4.75-.15-12.75.19-14,1.71a27.34,27.34,0,0,0-3,4.46.48.48,0,0,1-.33.26Z" style="fill:#263238"></path><path d="M177.49,221.86a.5.5,0,0,1-.5-.46c0-.05-.34-5.34,5.65-7.34,4.54-1.51,9.65,1.06,11.86,2.39-1.74-7.28.28-11.44.37-11.62a.5.5,0,1,1,.89.45s-2.15,4.5,0,12.15a.51.51,0,0,1-.78.55c-.06,0-6.69-4.76-12.06-3s-5,6.13-5,6.32a.5.5,0,0,1-.46.53Z" style="fill:#263238"></path><path d="M112.25,216.93a.45.45,0,0,1-.29-.1.5.5,0,0,1-.11-.7l1.14-1.51c1-1.37,4.14-1.65,5.49-1.71-.27-1.74-.64-6.84,3.32-10.14s9.92-.49,12,.67l.34-7.51a.5.5,0,1,1,1,0l-.38,8.34a.49.49,0,0,1-.27.42.52.52,0,0,1-.5,0c-.07-.05-7.33-4.69-11.54-1.18s-2.89,9.68-2.87,9.74a.51.51,0,0,1-.1.43.49.49,0,0,1-.39.19c-1.66,0-4.57.36-5.29,1.32l-1.14,1.51A.48.48,0,0,1,112.25,216.93Z" style="fill:#263238"></path></g><g id="freepik--Trees--inject-2"><path d="M354.25,214.11s-7.54,1.47-6.91,2.52,3.56,2.72,3.56,2.72-10-2.31-8.79.42l1.25,2.72s-6.49-3.77-13.19-1.05-8.38,10.05-8.38,10.05-8.79,0-6.28,1.47a44.37,44.37,0,0,1,5,3.56s-6.08.21-5,.84l1.05.63a65.43,65.43,0,0,0-10.05,4c-4.4,2.31-6.49,2.31-1.89,4.19s14.66,5,14.66,5-17-.21-11.31,2.51,14.24,2.93,14.24,2.93-5,2.31,2.73,3.35,21.35.21,26.8,1.89,21.32,10.46,23.54,9.21,1.17-4.4,5.78-4.6,7.95.41,7.54-1.26-6.08-4.19-6.08-4.19,5.66,1.89,5,.21-2.93-3.14-2.93-3.14,10.26,4.82,10.05.84S386.29,247,386.29,247s14.66,6.28,16.54,6.7,1.05-2.3,1.05-2.3,4.4,3.35,6.28,3.56,0-4.4,0-4.4,5.66,5.86,8.59,7.54,14.87-1,20.52-2.93l5.66-1.89s-4.4,5.87-2.1,5.66,9.84-2.73,9.84-2.73-4.6,4.61-1.67,4.82a17.26,17.26,0,0,0,6.49-1.26s-3.47,5.21-2.72,7.33,7.12,1.47,9.42.42-.42-2.72-.42-2.72,8.8-2.72,9.22-4.4-3.77-2.3-3.77-2.3,9.21.21,8.58-1-1.46-2.51-1.46-2.51l15.49,3.35s-2.51,1.47-1.46,1.88,8.79-2.72,8.79-2.72-3.35,3.77-.63,3.35a39.1,39.1,0,0,0,6.5-1.88s6.28-1.26,6.07,0-3.56,2.72,1,2.72,12.56-8.8,12.56-8.8-1.88,5,.84,4.19,7.54-17.17,7.54-17.17.21,4.82,2.3,3.14,9-8.79,8.8-11.93-13-12.15-19.69-14.24-10.89-3.35-10.89-3.35,6.28-1.89,4.82-3.35-11.52-.84-13-.21,2.73-4.19.21-3.56a23.22,23.22,0,0,0-5.86,2.93s-8.79-9.64-9.84-7.33,1.05,4.81,1.05,4.81,2.3-2.3-11.73-4-25.55.21-32,1.25-11.73-4.4-13.61-2.3,3.14,3.77,3.14,3.77-8.8-4.4-9.21-2.3l-.42,2.09s-17.8-4.19-30.37-2.72-26.59,5-29.11,6.28,1.89,1.26,1.89,1.26a45.79,45.79,0,0,1-8.17,2.3C356.14,213.07,354.25,214.11,354.25,214.11Z" style="fill:#2E8B57"></path><path d="M352,248.05s20.55,15.27,25.29,19.49,12.9,10.27,16.86,13.17,26.07,35,29.23,38.72,10.54,29.24,10.28,32.93,2.63,34,2.63,37.14V420h24.76s-10.8-56-14-62.34-11.33-22.91-12.91-26.6-5.79-15-5.79-15l19.49-38.73,17.39-13.43,18.17-2.11,19.49-11.32L483,260.54l-14.69.59,12.91-13.95,3-4.9L474,252.67l-5.49,5.05,9.35-22.86-12.17,25.38L448.43,273s2.82-9.8,3-10.39.15-24.05.15-24.05l-3,24.79-4.45,15.29-19.89,34.13-18.56-24.92,1.94-23.61,22-15.29,12.47-9.2,1.78-6.09L440,239.76l-21.67,14.4-11-18.41,7.86,19.3s-8.46,7.12-9.35,8.16-20.48-13.65-20.48-13.65l18.85,16.92-1.84,17.11L380.9,267.22l-10.39-26.87L377.78,265Z" style="fill:#263238"></path><path d="M461.66,420.46H435.79v-31c0-1.26-.47-7-1-13.55-.83-10-1.77-21.39-1.61-23.63.27-3.77-7.28-29.2-10.16-32.57-1.09-1.28-4.35-5.81-8.48-11.54-7.65-10.66-18.14-25.24-20.67-27.1-7.64-5.6-13.48-10.17-16.89-13.2-4.68-4.15-25-19.31-25.26-19.46l.57-.82,24.65,16.19L370,240.5l1-.33,10.33,26.74L402,282.65l1.72-16L385,249.93l.63-.77c8.57,6.42,18.31,13.25,19.93,13.59,1.23-1.27,7.57-6.64,9-7.85l-7.72-19,.89-.44,10.71,17.95,21.15-14,5.7-9-2.83,9.65-12.6,9.3-21.79,15.16-1.89,23.19,18,24.17,19.47-33.43,4.44-15.23,2.95-24.71,1,.06c0,5.52,0,23.56-.17,24.17-.11.46-1.77,6.24-2.56,9l15.93-11.82,12.12-25.26.91.4-8.5,20.79,3.84-3.54,13.22-13.41-5.24,8.63-12.09,13.06,13.37-.54L502.71,250l.47.88L483.5,262.24l-18,2.09-17.18,13.28L428.93,316c.58,1.54,4.27,11.42,5.71,14.78,1.57,3.65,9.75,20.29,12.9,26.58s13.56,60.17,14,62.46Zm-24.87-1h23.66c-1.18-6-10.89-55.77-13.81-61.61-3.15-6.3-11.34-23-12.92-26.63s-5.76-14.93-5.8-15l-.08-.21.1-.19L447.49,277l17.58-13.59.14,0,18.07-2.09,4-2.34L483,261l-15.9.64,13.7-14.8.73-1.21L474.32,253l-7.16,6.58,3.76-9.19-4.87,10.16-.1.07-18.41,13.65.41-1.42c0-.1,2.82-9.8,3-10.37s.11-7.92.13-15.47l-2,16.39-4.52,15.48-20.27,34.79L405.17,288l2-24,22.16-15.42,12.32-9.09.73-2.52-2.1,3.24-22.11,14.68-7.86-13.17,5.51,13.51-.28.23c-2.35,2-8.59,7.28-9.3,8.11-.29.34-.92,1.09-12.86-7.48l11.38,10.21-2,18.25-22.28-17-.05-.13-6-15.5,4.21,14.26-13.84-9.09c5.27,4,10.67,8.19,12.81,10.09,3.39,3,9.21,7.56,16.82,13.14,2.66,1.95,12.77,16,20.9,27.32,3.94,5.49,7.35,10.24,8.42,11.48,3.3,3.85,10.65,29.72,10.4,33.29-.16,2.16.82,14,1.61,23.47.55,6.62,1,12.34,1,13.64Z" style="fill:#263238"></path><path d="M338.2,240.38s-7.13.15-4.9,2.67,13.8,1.19,13.8,1.19-10.39,4.15-6.83,4,6.83-.59,6.83-.59-3.26,3-1.93,2.67,3.12-.74,3.12-.74-3.86,1.78-.74,2.08,6.53-2.52,6.53-2.52-1.64,3,1,1.48a36.13,36.13,0,0,0,5.49-4s-1,2.38.15,2.53,4.3-4.46,4.3-4.46-1.19,4.16.59,3.56,4.9-3.26,4.9-3.26-.15,4.3,1.93,2.82A6.56,6.56,0,0,0,375,245s-.29,2.23,1.49,1.19,3-6.24,3-6.24" style="fill:#2E8B57"></path><path d="M348,252.18l-.52,0c-.42,0-1.53-.15-1.66-.92a.93.93,0,0,1,.12-.58l-.68.15c-.55.12-.77-.13-.86-.3s-.31-.6,1.25-2.18c-1.3.14-3.29.33-5.37.41-.34,0-1.13,0-1.26-.55-.07-.35-.2-1,4.91-3.18-3.71.21-9.4.21-11-1.63a1.59,1.59,0,0,1-.45-1.73c.7-1.59,4.88-1.75,5.72-1.77l0,1c-2.09,0-4.53.5-4.82,1.17-.08.19.11.47.28.67,1.69,1.91,10.23,1.38,13.37,1l3.72-.43-3.47,1.39a61.59,61.59,0,0,0-6.63,3c3.34-.16,6.34-.57,6.37-.57l1.6-.22L347.44,248a21.11,21.11,0,0,0-1.64,1.65l2.37-.57.33.93a6.17,6.17,0,0,0-1.59,1,2.89,2.89,0,0,0,.68.12c2.89.28,6.14-2.38,6.17-2.41l2-1.66-1.25,2.29a3.65,3.65,0,0,0-.43,1.14,2.67,2.67,0,0,0,.78-.34,36.27,36.27,0,0,0,5.4-3.94l1.71-1.53-.91,2.1a3.08,3.08,0,0,0-.33,1.79c.59,0,2.37-1.94,3.91-4.2l1.75-2.58-.86,3c-.41,1.45-.46,2.82-.23,3,0,0,.07,0,.19,0,1.67-.56,4.7-3.14,4.73-3.17l.86-.74,0,1.14c0,1.08.18,2.39.56,2.59.16.08.46-.11.58-.2a6.34,6.34,0,0,0,2.34-2.57l1.57-4.44-.6,4.66a1.31,1.31,0,0,0,.13.89s.21,0,.61-.2c1.3-.76,2.41-4.52,2.73-5.91l1,.22c-.13.56-1.3,5.44-3.21,6.56a1.54,1.54,0,0,1-1.67.17,1,1,0,0,1-.34-.38,9.91,9.91,0,0,1-2,1.82,1.48,1.48,0,0,1-1.63.26c-.74-.39-1-1.56-1.06-2.46a17.93,17.93,0,0,1-4.27,2.71,1.1,1.1,0,0,1-1.19-.2,2.3,2.3,0,0,1-.44-1.77c-1.13,1.45-2.57,3-3.49,2.88a1,1,0,0,1-.82-.54,1.84,1.84,0,0,1-.17-1.06,32.46,32.46,0,0,1-4.34,3c-.67.37-1.51.74-2,.23a1,1,0,0,1-.25-.85A10.17,10.17,0,0,1,348,252.18Z" style="fill:#263238"></path><path d="M401.23,230.41s-4.75,5.64-2.82,5.79,5.35-2.82,5.35-2.82-1.78,3.56-.45,4.3,3.71-3.11,3.71-3.11-1.93,4.89-.15,4a5.85,5.85,0,0,0,2.53-2.82s-.15,4,1,3.12,1.78-3.86,1.78-3.86.74,2.82,1.78,1.93,1-4.3,1-4.3.89,2.67,2.07,1.48a27.48,27.48,0,0,0,2.82-3.86" style="fill:#2E8B57"></path><path d="M410.12,239.5a.92.92,0,0,1-.38-.09c-.49-.26-.71-1.06-.8-1.93A5.48,5.48,0,0,1,407.1,239a1,1,0,0,1-1.16-.05,2.12,2.12,0,0,1-.22-1.86c-.84.85-1.81,1.48-2.65,1-1-.56-.83-2-.47-3.21-1.22.87-3,1.88-4.22,1.79a1,1,0,0,1-.85-.56c-.53-1.27,2.15-4.66,3.32-6l.77.64c-1.83,2.18-3.31,4.52-3.16,5,1.38.1,4.06-2,5-2.75l1.9-1.65-1.13,2.25c-.64,1.28-1.24,3.32-.65,3.65s2-1.31,3.05-2.95l.89.45a10.33,10.33,0,0,0-.87,3.39h0a5.35,5.35,0,0,0,2.28-2.56l1.07-2.75-.1,3a8,8,0,0,0,.26,2.67c.86-.73,1.42-2.78,1.57-3.53l.42-2.11.55,2.08c.24.89.69,1.7.89,1.73.71-.59,1-2.74,1-4v-3.06l1,2.9c.19.55.62,1.36,1,1.44.07,0,.17,0,.29-.15a27.46,27.46,0,0,0,2.75-3.77l.85.52a27.89,27.89,0,0,1-2.89,3.95,1.26,1.26,0,0,1-1.23.42,1.61,1.61,0,0,1-.82-.52,4.94,4.94,0,0,1-1.1,2.95,1.06,1.06,0,0,1-1,.25,1.94,1.94,0,0,1-1-1,5.7,5.7,0,0,1-1.56,2.67A1.08,1.08,0,0,1,410.12,239.5Z" style="fill:#263238"></path><path d="M382.08,247s-4.75,5.64-2.82,5.79,5.34-2.82,5.34-2.82-1.78,3.56-.45,4.31,3.71-3.12,3.71-3.12-1.93,4.9-.14,4a5.8,5.8,0,0,0,2.52-2.82s-.15,4,1,3.11,1.78-3.85,1.78-3.85.74,2.82,1.78,1.92,1-4.3,1-4.3.89,2.67,2.08,1.48a27.86,27.86,0,0,0,2.82-3.85" style="fill:#2E8B57"></path><path d="M391,256a.79.79,0,0,1-.38-.09c-.49-.26-.71-1.06-.8-1.92a5.47,5.47,0,0,1-1.84,1.53.93.93,0,0,1-1.15-.05c-.36-.32-.38-1-.23-1.86-.83.86-1.81,1.48-2.65,1-1-.55-.83-2-.46-3.2-1.23.87-3,1.89-4.23,1.78a.91.91,0,0,1-.84-.56c-.54-1.27,2.14-4.65,3.31-6.05l.77.65c-1.83,2.17-3.31,4.52-3.16,5,1.39,0,4.07-2,5-2.75l1.9-1.65-1.12,2.25c-.64,1.28-1.24,3.31-.65,3.64s2-1.31,3-2.94l.89.44a10.7,10.7,0,0,0-.87,3.4l0,0a5.33,5.33,0,0,0,2.28-2.55l1.08-2.76-.11,3A7.91,7.91,0,0,0,391,255c.86-.73,1.42-2.77,1.57-3.52l.42-2.11.55,2.08a3.25,3.25,0,0,0,.9,1.73c.7-.59.94-2.75.94-4v-3.05l1,2.89c.19.56.62,1.37,1,1.44.08,0,.17,0,.29-.15a27.46,27.46,0,0,0,2.75-3.77l.85.53a26.83,26.83,0,0,1-2.89,4,1.29,1.29,0,0,1-1.23.42,1.62,1.62,0,0,1-.81-.53,5.07,5.07,0,0,1-1.1,3,1.1,1.1,0,0,1-1,.24,1.94,1.94,0,0,1-1-1,5.68,5.68,0,0,1-1.57,2.66A1,1,0,0,1,391,256Z" style="fill:#263238"></path><path d="M435.82,231.75s-5.5,3.26-3.57,4,9.06-3.86,9.06-3.86-2.82,3.86-1.49,4,4-2.23,4-2.23-3,4.31-1.34,4,2.68-3,2.68-3,0,4.9,1.48,3a16.32,16.32,0,0,0,1.93-3s.15,8.17,2.23,6.39a5.79,5.79,0,0,0,1.78-4.61s5.34,5,5.93,2.82-1-4.89-1-4.89,3.71,5.49,4.74,2.67a8,8,0,0,0,0-5.34s1.93,3.26,2.08,1.92-.89-5.64-.89-5.64" style="fill:#2E8B57"></path><path d="M450.25,241.85a1.09,1.09,0,0,1-.43-.09c-1.11-.5-1.52-3.3-1.66-5.32-.29.43-.65.95-1.11,1.55s-.85.74-1.28.6-.87-1.07-1-2.08a3.69,3.69,0,0,1-2.19,1.66.84.84,0,0,1-.94-.33c-.29-.45,0-1.29.43-2.22a4.22,4.22,0,0,1-2.3.78.85.85,0,0,1-.72-.51c-.24-.54.12-1.48.63-2.41-2.37,1.39-6.1,3.32-7.61,2.74a1,1,0,0,1-.72-.87c-.12-1.31,2.91-3.26,4.21-4l.51.85c-1.93,1.15-3.68,2.6-3.73,3.08l.09,0c1.16.45,5.74-2,8.61-3.82L443.3,230l-1.59,2.18a10.12,10.12,0,0,0-1.75,3.22c.82,0,2.54-1.22,3.54-2.11l3.08-2.74-2.34,3.4a13.42,13.42,0,0,0-1.72,3.19c1.09-.34,1.93-2,2.18-2.62l1-2.48v2.66a8,8,0,0,0,.4,2.87,1.35,1.35,0,0,0,.18-.2,15.53,15.53,0,0,0,1.87-2.86l.92-2.11,0,2.29c.05,2.74.52,5.86,1.15,6.15a.44.44,0,0,0,.25-.13,5.28,5.28,0,0,0,1.61-4.17l-.13-1.34,1,.92c1.82,1.72,4.24,3.44,5,3.24,0,0,.09,0,.13-.18.53-2-1-4.49-1-4.51l.84-.54c.93,1.37,2.67,3.35,3.46,3.25.16,0,.3-.18.41-.47a7.47,7.47,0,0,0,0-5l.9-.45a13,13,0,0,0,1.14,1.66,36.14,36.14,0,0,0-.87-5l1-.23c.11.45,1,4.43.9,5.81-.06.56-.38.71-.57.75s-.46.1-1.06-.52a8,8,0,0,1-.48,3.3,1.49,1.49,0,0,1-1.21,1.12,3.43,3.43,0,0,1-2.45-1.29,5.48,5.48,0,0,1,0,2.35,1.19,1.19,0,0,1-.83.89c-1.3.36-3.71-1.5-5.12-2.73a5.84,5.84,0,0,1-1.93,3.88A1.35,1.35,0,0,1,450.25,241.85Z" style="fill:#263238"></path><path d="M472,233.82s-4.6,5.2-2.52,6.09,6.23-3.12,6.23-3.12-2.52,5.49-1.63,5.2,4.9-4.75,4.9-4.75.14,5.19,1,4.45,1.63-3.56,1.63-3.56,1.48,9.5,3.71,7.57a7,7,0,0,0,2.37-4.46s3.27,4.16,3.71,2.68a7,7,0,0,0-.29-3.57s4.15,3.57,4.89,2.53-1.18-4.46-1.18-4.46" style="fill:#2E8B57"></path><path d="M484.8,246.46a1.32,1.32,0,0,1-.43-.08c-1.4-.51-2.34-3.94-2.83-6.25a5.21,5.21,0,0,1-1.17,1.94.71.71,0,0,1-.78.13c-.54-.24-.89-1.5-1-3.73-1.34,1.45-3.54,3.74-4.29,4a.65.65,0,0,1-.68-.16c-.17-.19-.49-.55.82-3.72-1.49,1.14-3.64,2.41-5.1,1.79a1.3,1.3,0,0,1-.8-1c-.41-1.8,2.55-5.25,3.15-5.93l.74.66c-1.34,1.52-3.13,4.09-2.92,5a.35.35,0,0,0,.22.25c1.29.55,4.18-1.56,5.69-3l1.91-1.84L476.2,237a37.59,37.59,0,0,0-1.63,4.06,57.3,57.3,0,0,0,4.06-4.16l.84-.93,0,1.25a18.47,18.47,0,0,0,.43,3.84,10.87,10.87,0,0,0,1.25-3.06l.61-2.31.37,2.36c.52,3.3,1.64,7.06,2.54,7.39.05,0,.15.05.35-.12a6.47,6.47,0,0,0,2.2-4.11l.08-1.31.82,1a11,11,0,0,0,2.85,2.78,6.78,6.78,0,0,0-.3-3.2l-.63-1.77L491.5,240c1.77,1.52,3.76,2.76,4.2,2.59.3-.44-.39-2.37-1.25-3.89l.87-.49c.49.86,2,3.78,1.16,5a1,1,0,0,1-.68.39c-.95.11-2.62-1-3.78-1.89a5.69,5.69,0,0,1-.07,2.39.87.87,0,0,1-.68.66c-.86.17-2.2-1.15-3.22-2.33a7.53,7.53,0,0,1-2.33,3.68A1.43,1.43,0,0,1,484.8,246.46Z" style="fill:#263238"></path><path d="M493.73,245.16s-4.6,5.19-2.52,6.08,6.23-3.12,6.23-3.12-2.52,5.5-1.63,5.2,4.9-4.75,4.9-4.75.14,5.19,1,4.45,1.64-3.56,1.64-3.56,1.48,9.5,3.71,7.57a7,7,0,0,0,2.37-4.45s3.27,4.15,3.71,2.67a6.9,6.9,0,0,0-.29-3.56s4.15,3.56,4.89,2.52-1.18-4.45-1.18-4.45" style="fill:#2E8B57"></path><path d="M506.5,257.79a1.1,1.1,0,0,1-.43-.08c-1.4-.51-2.34-3.93-2.83-6.25a5.35,5.35,0,0,1-1.18,1.95.71.71,0,0,1-.77.12c-.54-.24-.89-1.5-1-3.73-1.34,1.45-3.54,3.74-4.29,4a.63.63,0,0,1-.68-.16c-.17-.19-.49-.55.82-3.72-1.49,1.14-3.63,2.42-5.1,1.79a1.3,1.3,0,0,1-.8-.95c-.41-1.8,2.55-5.25,3.15-5.93l.74.67c-1.34,1.51-3.13,4.08-2.92,5a.34.34,0,0,0,.22.25c1.29.55,4.18-1.56,5.69-3l1.91-1.83-1.11,2.4a39.41,39.41,0,0,0-1.62,4.06,57.3,57.3,0,0,0,4.06-4.16l.84-.92,0,1.25a18.36,18.36,0,0,0,.43,3.83,10.87,10.87,0,0,0,1.25-3.06l.61-2.31.37,2.36c.52,3.3,1.63,7.06,2.54,7.39,0,0,.15.06.35-.12a6.5,6.5,0,0,0,2.2-4.11l.09-1.3.81,1a10.87,10.87,0,0,0,2.85,2.78,6.78,6.78,0,0,0-.3-3.2l-.63-1.76,1.42,1.22c1.77,1.51,3.76,2.74,4.2,2.58.3-.44-.39-2.37-1.25-3.89l.87-.49c.49.87,2,3.78,1.16,5a1,1,0,0,1-.68.39c-1,.12-2.62-1-3.79-1.89a5.52,5.52,0,0,1-.06,2.39.87.87,0,0,1-.68.66c-.86.16-2.2-1.15-3.22-2.33a7.55,7.55,0,0,1-2.33,3.69A1.41,1.41,0,0,1,506.5,257.79Z" style="fill:#263238"></path><path d="M176.93,80.55S164.5,83,165.53,84.7s5.87,4.49,5.87,4.49-16.57-3.8-14.5.69L159,94.36s-10.7-6.21-21.75-1.72-13.81,16.57-13.81,16.57-14.5,0-10.36,2.42a72.25,72.25,0,0,1,8.29,5.87s-10,.34-8.29,1.38l1.73,1a108.22,108.22,0,0,0-16.58,6.56c-7.25,3.79-10.7,3.79-3.1,6.9s24.16,8.29,24.16,8.29-28-.35-18.64,4.14,23.48,4.84,23.48,4.84-8.29,3.79,4.49,5.52,35.22.35,44.19,3.11,35.15,17.25,38.81,15.18,1.94-7.24,9.53-7.59,13.12.69,12.43-2.07-10-6.9-10-6.9,9.32,3.1,8.29.34-4.84-5.18-4.84-5.18,16.92,7.94,16.58,1.38-13.82-19.68-13.82-19.68,24.17,10.36,27.28,11.05,1.73-3.8,1.73-3.8,7.25,5.53,10.36,5.87,0-7.25,0-7.25,9.32,9.67,14.15,12.43,24.52-1.72,33.84-4.83l9.32-3.11s-7.25,9.67-3.45,9.32S339.21,150,339.21,150s-7.6,7.6-2.76,8,10.7-2.08,10.7-2.08-5.73,8.58-4.49,12.09,11.74,2.42,15.54.69-.69-4.49-.69-4.49,14.5-4.49,15.19-7.25-6.21-3.8-6.21-3.8,15.19.35,14.15-1.72a42.36,42.36,0,0,0-2.42-4.15l25.56,5.53s-4.15,2.41-2.42,3.1,14.5-4.48,14.5-4.48-5.52,6.21-1,5.52a64,64,0,0,0,10.71-3.11s10.36-2.07,10,0-5.87,4.49,1.73,4.49S458,143.74,458,143.74s-3.1,8.29,1.39,6.91,12.43-28.32,12.43-28.32.34,7.94,3.79,5.18,14.85-14.5,14.51-19.68-21.41-20-32.46-23.48-18-5.52-18-5.52,10.36-3.11,7.95-5.53-19-1.38-21.41-.34,4.49-6.91.34-5.87-9.66,4.83-9.66,4.83S402.39,56,400.67,59.84s1.72,7.94,1.72,7.94,3.8-3.8-19.33-6.56-42.13.34-52.83,2.07S310.9,56,307.79,59.49,313,65.71,313,65.71s-14.5-7.25-15.2-3.8l-.69,3.45s-29.34-6.9-50.06-4.49-43.85,8.29-48,10.36,3.11,2.07,3.11,2.07a74.87,74.87,0,0,1-13.46,3.8C180,78.83,176.93,80.55,176.93,80.55Z" style="fill:#2E8B57"></path><path d="M173.21,136.5s33.88,25.19,41.7,32.14,21.28,16.94,27.79,21.72,43,57.76,48.21,63.84,17.38,48.21,16.94,54.29,4.34,56,4.34,61.24V420H353s-17.81-92.36-23-102.78-18.67-37.79-21.28-43.87-9.55-24.75-9.55-24.75l32.14-63.85L360,162.56l30-3.47,32.14-18.68L389.23,157.1l-24.22,1,21.29-23,4.89-8.08L374.3,144.13l-9.05,8.32,15.42-37.68L360.6,156.61l-28.39,21s4.65-16.15,4.9-17.13.24-39.65.24-39.65l-4.89,40.87L325.12,187l-32.8,56.28-30.59-41.09,3.18-38.93L301.13,138l20.56-15.17,2.94-10-6.37,10-35.73,23.74-18.11-30.35,13,31.82S263.45,159.79,262,161.51,228.21,139,228.21,139l31.08,27.9-3.05,28.21-35.38-27-17.13-44.29,12,40.62Z" style="fill:#263238"></path><path d="M353.63,420.46H311.69V369.73c0-2.08-.77-11.48-1.68-22.36-1.37-16.52-2.92-35.25-2.66-38.91.42-5.8-11.48-47.71-16.82-53.93-1.8-2.1-7.17-9.57-14-19-12.64-17.57-29.95-41.65-34.16-44.74-12.6-9.24-22.22-16.75-27.84-21.74-7.71-6.86-41.32-31.87-41.66-32.12l.58-.82,41.37,27.2L203.25,124l.95-.32,17.08,44.16,34.56,26.37,2.92-27.08-30.89-27.73.63-.77c11.67,8.75,30.85,22.49,33.17,22.51,1.69-1.85,13.13-11.52,15.12-13.2L264,116.42l.89-.44,17.84,29.89,35.21-23.39,8.2-12.93-4,13.59-20.69,15.28-36,25.08L262.24,202l30,40.34,32.38-55.58L332,161.61l4.87-40.79,1,.06c0,6.47,0,38.78-.26,39.77-.2.81-3.34,11.74-4.49,15.73l27.1-20.1,20-41.73.91.4-14.57,35.62,7.41-6.81,19.86-20.15-7.17,11.81-20.47,22.11,22.91-.92L421.85,140l.48.88L390.1,159.57H390L360.17,163,331.7,185l-32,63.55c.76,2,7,18.87,9.47,24.53,2.57,6,16.08,33.45,21.27,43.84s22.33,99.13,23.06,102.9Zm-40.94-1h39.73c-1.55-8-18-92.25-22.87-102.06-4.78-9.57-18.58-37.56-21.29-43.89-2.58-6-9.49-24.59-9.56-24.78l-.08-.2.1-.2,32.19-63.94,28.86-22.31,30-3.48,16.67-9.69-17.2,8.69-25.43,1,22.07-23.86,2.66-4.38-13.89,14.09-10.72,9.86,9.83-24L361,156.94l-29.68,22,.41-1.42c0-.16,4.65-16.15,4.89-17.11s.21-16.89.23-31.1l-3.9,32.5-7.4,25.4-33.18,56.94L261.21,202.3l0-.19,3.2-39.17,36.42-25.34,20.41-15.06,1.89-6.47-4.61,7.19-36.17,24-15-25.12,10.62,26-.28.23c-.14.12-13.94,11.74-15.36,13.4-.49.57-1.22,1.42-18.11-10.53-2.76-2-5.52-4-8-5.72l23.52,21.11L256.65,196l-36.2-27.61-12.79-33.06,8.93,30.24-30.16-19.82c10.47,7.9,24.21,18.39,28.81,22.48,5.59,5,15.19,12.47,27.76,21.68,4.34,3.19,21.7,27.34,34.38,45,6.51,9.06,12.14,16.89,13.91,19,5.41,6.31,17.48,48.78,17.06,54.65-.26,3.58,1.36,23.09,2.66,38.76.9,10.9,1.68,20.32,1.68,22.44Z" style="fill:#263238"></path><path d="M150.45,123.86s-11.74.25-8.07,4.41,22.76,1.95,22.76,1.95-17.13,6.86-11.26,6.61,11.26-1,11.26-1-5.39,4.9-3.19,4.41,5.14-1.23,5.14-1.23-6.36,2.94-1.22,3.43,10.77-4.16,10.77-4.16-2.69,4.89,1.71,2.45a60.19,60.19,0,0,0,9.06-6.61s-1.72,3.92.24,4.16,7.1-7.34,7.1-7.34-2,6.85,1,5.87,8.07-5.38,8.07-5.38-.24,7.09,3.18,4.65,4.16-4.65,4.16-4.65-.49,3.67,2.45,2,4.9-10.28,4.9-10.28" style="fill:#2E8B57"></path><path d="M166.65,143c-.28,0-.55,0-.83,0-1-.1-2.28-.32-2.44-1.24a1.75,1.75,0,0,1,.76-1.45l-2.08.48c-.66.14-.94-.1-1.06-.33s-.45-.88,2.67-3.88c-2,.23-5.8.63-9.77.79-.51,0-1.58.07-1.73-.66-.08-.37-.31-1.45,9.68-5.64-5.71.43-17,.81-19.85-2.43a2.35,2.35,0,0,1-.69-2.52c1.09-2.48,8.31-2.7,9.13-2.72l0,1c-2.85.06-7.6.69-8.23,2.13-.17.38,0,.86.52,1.45,2.87,3.25,17.09,2.39,22.33,1.79l3.72-.43-3.48,1.39c-5.13,2.05-10.63,4.58-11.92,5.64h.46c5.78-.24,11.16-1,11.21-1l1.59-.22-1.19,1.08a29.05,29.05,0,0,0-3.32,3.48c2.13-.48,4.79-1.14,4.82-1.15l.33.94c-1.5.69-2.93,1.7-2.93,2.07h0s.19.27,1.55.4c4.88.46,10.34-4,10.4-4.05l2-1.66-1.25,2.29a4.16,4.16,0,0,0-.72,2.37s.33.19,1.75-.6a59.89,59.89,0,0,0,9-6.54l1.71-1.53-.92,2.1c-.42,1-.87,2.63-.52,3.24a.44.44,0,0,0,.37.22c1,.11,4.23-3.6,6.62-7.12l1.76-2.59-.86,3c-.52,1.8-.95,4.61-.3,5.23,0,0,.19.18.64,0,2.81-.94,7.86-5.25,7.91-5.29l.86-.74,0,1.13c-.05,1.63.25,4.12,1.1,4.58.31.16.74,0,1.29-.35,3.23-2.3,4-4.38,4-4.4l1.6-4.65-.63,4.87c-.07.57,0,1.54.35,1.78s.72.05,1.35-.32c2.25-1.31,4.13-7.63,4.66-10l1,.22c-.08.36-2,8.8-5.13,10.6-1,.58-1.81.68-2.4.28a1.77,1.77,0,0,1-.68-1,14.62,14.62,0,0,1-3.49,3.37,2.14,2.14,0,0,1-2.34.42c-1.25-.67-1.55-3-1.62-4.42-1.58,1.3-5.11,4-7.43,4.81a1.52,1.52,0,0,1-1.64-.26c-.75-.71-.71-2.37-.5-3.81-1.81,2.44-4.58,5.77-6.15,5.56a1.46,1.46,0,0,1-1.12-.73,3.55,3.55,0,0,1-.09-2.4,54.8,54.8,0,0,1-7.79,5.51c-.93.52-2.25,1.13-2.94.44a1.89,1.89,0,0,1-.18-1.85C173.56,141.05,170.1,143,166.65,143Z" style="fill:#263238"></path><path d="M254.39,107.42s-7.83,9.3-4.65,9.55,8.81-4.65,8.81-4.65-2.94,5.87-.73,7.09,6.11-5.13,6.11-5.13-3.18,8.07-.24,6.6a9.57,9.57,0,0,0,4.16-4.65s-.24,6.61,1.71,5.14S272.5,115,272.5,115s1.22,4.65,2.94,3.18,1.71-7.1,1.71-7.1,1.47,4.41,3.43,2.45a46.31,46.31,0,0,0,4.65-6.36" style="fill:#2E8B57"></path><path d="M269,122.09a1,1,0,0,1-.47-.12c-.85-.45-1.13-2.26-1.21-3.79a9.13,9.13,0,0,1-3.45,3.15c-.8.4-1.27.21-1.53,0-.67-.61-.44-2.32,0-4-1.42,1.72-3.32,3.4-4.82,2.56-1.73-1-1-3.9-.27-5.89-2,1.47-5.3,3.69-7.6,3.51a1.2,1.2,0,0,1-1.11-.73c-.83-2,3.94-7.88,5.42-9.64l.76.65c-2.85,3.38-5.67,7.63-5.26,8.6,0,0,0,.1.27.12,2.45.18,6.92-3.21,8.44-4.53l1.9-1.65L259,112.54c-.89,1.78-2.29,5.69-.94,6.44s3.93-2.49,5.45-5l.89.45c-1.12,2.84-1.76,5.75-1.35,6.1h0a1,1,0,0,0,.39-.12,9.1,9.1,0,0,0,3.91-4.39l1.08-2.77-.11,3c-.09,2.34.23,4.6.68,4.83,0,0,.1,0,.23-.11,1.48-1.11,2.49-4.75,2.75-6.06l.42-2.11.55,2.08c.31,1.16,1,2.88,1.69,3.08.06,0,.2.06.44-.15,1.26-1.08,1.54-5.21,1.54-6.72V108l1,2.91c.31.91,1.07,2.41,1.81,2.59.09,0,.37.08.79-.34a45.05,45.05,0,0,0,4.58-6.27l.85.52a45,45,0,0,1-4.72,6.46,1.8,1.8,0,0,1-1.73.6,3,3,0,0,1-1.64-1.4c-.17,1.86-.61,4.45-1.8,5.47a1.43,1.43,0,0,1-1.39.35,3.68,3.68,0,0,1-1.79-2.17c-.48,1.63-1.37,4-2.72,5A1.34,1.34,0,0,1,269,122.09Z" style="fill:#263238"></path><path d="M222.8,134.7s-7.83,9.3-4.65,9.55S227,139.6,227,139.6s-2.93,5.87-.73,7.09,6.12-5.13,6.12-5.13-3.18,8.07-.25,6.6a9.57,9.57,0,0,0,4.16-4.65s-.24,6.61,1.72,5.14,2.93-6.36,2.93-6.36,1.23,4.65,2.94,3.18,1.71-7.1,1.71-7.1,1.47,4.41,3.43,2.45a45.42,45.42,0,0,0,4.65-6.36" style="fill:#2E8B57"></path><path d="M237.45,149.37a1,1,0,0,1-.47-.12c-.85-.44-1.13-2.26-1.2-3.79a9.29,9.29,0,0,1-3.45,3.15c-.81.4-1.28.21-1.54,0-.67-.62-.44-2.32,0-4-1.42,1.72-3.32,3.39-4.81,2.56-1.74-1-1-3.9-.28-5.89-2,1.47-5.31,3.68-7.59,3.51A1.22,1.22,0,0,1,217,144c-.83-2,3.94-7.88,5.42-9.64l.77.65c-2.85,3.38-5.67,7.63-5.27,8.6,0,0,0,.1.27.12,2.45.19,6.92-3.21,8.45-4.53l1.9-1.65-1.13,2.25c-.89,1.78-2.28,5.69-.94,6.44s3.93-2.49,5.45-5l.89.45c-1.12,2.84-1.76,5.75-1.34,6.1h0a.83.83,0,0,0,.41-.12,9.15,9.15,0,0,0,3.92-4.39l1.07-2.77-.11,3c-.08,2.34.23,4.6.68,4.83,0,0,.1,0,.24-.11,1.47-1.11,2.48-4.75,2.74-6.06l.43-2.11.55,2.08c.3,1.16,1,2.88,1.68,3.08.06,0,.2.06.44-.15,1.26-1.08,1.54-5.21,1.54-6.72v-3.06l1,2.91c.3.9,1.06,2.41,1.8,2.59.1,0,.37.08.8-.34a44.7,44.7,0,0,0,4.57-6.27l.86.52a45.66,45.66,0,0,1-4.73,6.45,1.79,1.79,0,0,1-1.73.61,3,3,0,0,1-1.64-1.4c-.16,1.86-.6,4.45-1.8,5.47a1.43,1.43,0,0,1-1.39.35C242,146,241.39,145,241,144c-.48,1.63-1.37,4-2.71,5A1.36,1.36,0,0,1,237.45,149.37Z" style="fill:#263238"></path><path d="M311.41,109.63s-9.05,5.38-5.87,6.6,14.93-6.36,14.93-6.36-4.65,6.36-2.45,6.61,6.61-3.67,6.61-3.67-4.9,7.09-2.21,6.6,4.41-4.89,4.41-4.89,0,8.08,2.45,4.89a26.87,26.87,0,0,0,3.18-4.89S332.7,128,336.13,125s2.93-7.58,2.93-7.58,8.81,8.32,9.79,4.65-1.71-8.08-1.71-8.08,6.12,9.06,7.83,4.41a13.2,13.2,0,0,0,0-8.81s3.18,5.38,3.43,3.18-1.47-9.3-1.47-9.3" style="fill:#2E8B57"></path><path d="M335.21,126a1.34,1.34,0,0,1-.57-.12c-1.88-.84-2.45-6.38-2.62-9.49a39.08,39.08,0,0,1-2.35,3.37c-.6.78-1.19,1.07-1.74.88-1-.34-1.39-2.35-1.53-4.1-.81,1.38-2.14,3.09-3.89,3.41a1.11,1.11,0,0,1-1.22-.41c-.52-.82.34-2.75,1.34-4.48-1.48,1-3.36,2.1-4.67,2a1.09,1.09,0,0,1-.92-.65c-.45-1,.65-3.13,1.69-4.79-3.6,2.17-10.77,6.16-13.37,5.16a1.36,1.36,0,0,1-1-1.15c-.17-2,5.16-5.38,6.8-6.35l.51.86c-3.1,1.84-6.39,4.43-6.31,5.4,0,.05,0,.18.36.31,2.4.92,11.27-4.25,14.47-6.32l2.27-1.46-1.59,2.18c-1.64,2.25-3.21,5.1-2.92,5.76,0,0,0,0,.12,0,1.63.18,5-2.5,6.22-3.55l3.09-2.74-2.34,3.4c-1.8,2.61-3.15,5.33-2.91,5.86,0,0,.07,0,.2,0,2.39-.43,4-4.54,4-4.58l1-2.47v2.65c0,2.52.44,5,.92,5.14,0,0,.25,0,.63-.55a26.48,26.48,0,0,0,3.12-4.79l.92-2.12,0,2.31c.07,4,.77,9.82,2.09,10.42.07,0,.29.13.75-.27,3.19-2.73,2.77-7.11,2.77-7.15l-.14-1.34,1,.92c2.46,2.33,7,5.86,8.52,5.42.15,0,.34-.14.44-.53.91-3.42-1.63-7.65-1.66-7.69l.84-.54c1.51,2.23,4.47,5.71,6,5.51.14,0,.58-.07.92-1a12.75,12.75,0,0,0,0-8.44l.89-.45a15.51,15.51,0,0,0,2.5,3.37c.23-2.1-1.44-9-1.46-9.12l1-.23c.07.29,1.73,7.21,1.48,9.47-.08.69-.42.9-.69,1-.51.11-1.21-.41-2.09-1.55a13.27,13.27,0,0,1-.68,6.34,2.16,2.16,0,0,1-1.74,1.64c-1.43.16-3.19-1.35-4.6-2.91a9.31,9.31,0,0,1,.24,4.9,1.62,1.62,0,0,1-1.14,1.23c-2.14.61-6.67-3.13-8.62-4.87a9.52,9.52,0,0,1-3.13,6.82A1.9,1.9,0,0,1,335.21,126Z" style="fill:#263238"></path><path d="M371.12,113.05s-7.58,8.57-4.16,10S377.24,118,377.24,118s-4.16,9-2.69,8.56,8.08-7.83,8.08-7.83.24,8.57,1.71,7.34,2.69-5.87,2.69-5.87,2.45,15.66,6.12,12.48a11.46,11.46,0,0,0,3.91-7.34s5.39,6.85,6.12,4.4-.49-5.87-.49-5.87,6.86,5.87,8.08,4.16-2-7.34-2-7.34" style="fill:#2E8B57"></path><path d="M392.17,133.56a1.72,1.72,0,0,1-.59-.11c-2.38-.87-4-7.63-4.68-11.18a10.66,10.66,0,0,1-2.24,4.14.86.86,0,0,1-.93.16c-1.05-.47-1.42-4-1.56-6.65-2,2.14-6.18,6.64-7.46,7.07a.72.72,0,0,1-.77-.18c-.19-.22-.75-.84,1.9-7-2.35,1.94-6.45,4.81-9.07,3.69a1.87,1.87,0,0,1-1.14-1.35c-.64-2.87,4.53-8.81,5.12-9.48l.75.66c-1.52,1.71-5.34,6.59-4.89,8.6a.88.88,0,0,0,.55.65c2.56,1.09,7.89-3.27,9.73-5l1.91-1.84-1.1,2.41a46.47,46.47,0,0,0-2.94,7.67c1.42-1,5.21-5,7.49-7.48l.84-.93,0,1.25c.09,3.25.51,6.29.95,6.91,1.09-1,2.15-4.34,2.47-5.56l.61-2.31.36,2.36c.7,4.44,2.51,11.75,4.4,12.44.19.07.47.11.9-.26a11.11,11.11,0,0,0,3.75-7l.07-1.32.82,1c1.88,2.4,4.42,4.88,5.14,4.74,0,0,.09-.11.1-.17.68-2.26-.47-5.53-.48-5.56l-.63-1.77,1.43,1.22c2.06,1.77,5.83,4.51,7.14,4.35.14,0,.18-.07.2-.1.72-1-.73-4.58-2-6.81l.87-.49c.55,1,3.27,6,1.93,7.88a1.27,1.27,0,0,1-.9.51c-1.62.19-4.88-2.15-6.68-3.57a9.74,9.74,0,0,1,.06,4.63,1.13,1.13,0,0,1-.87.86c-1.42.27-4-2.53-5.41-4.22a12.15,12.15,0,0,1-3.9,6.53A2,2,0,0,1,392.17,133.56Z" style="fill:#263238"></path><path d="M406.9,131.74s-7.58,8.56-4.16,10S413,136.63,413,136.63s-4.16,9.06-2.69,8.57,8.07-7.83,8.07-7.83.25,8.56,1.72,7.34,2.69-5.88,2.69-5.88,2.45,15.67,6.12,12.49a11.5,11.5,0,0,0,3.91-7.35s5.39,6.86,6.12,4.41-.49-5.87-.49-5.87,6.85,5.87,8.08,4.16-2-7.35-2-7.35" style="fill:#2E8B57"></path><path d="M427.94,152.24a1.67,1.67,0,0,1-.58-.1c-2.39-.88-4-7.63-4.68-11.18-.52,1.48-1.31,3.36-2.24,4.13a.86.86,0,0,1-.93.16c-1.05-.47-1.42-3.95-1.56-6.64-2,2.14-6.18,6.63-7.46,7.06a.72.72,0,0,1-.77-.17c-.19-.22-.75-.85,1.9-7-2.35,2-6.45,4.81-9.08,3.69a1.86,1.86,0,0,1-1.13-1.34c-.64-2.88,4.53-8.82,5.12-9.48l.75.66c-1.52,1.71-5.34,6.58-4.89,8.6a.85.85,0,0,0,.55.64c2.56,1.1,7.89-3.27,9.73-5l1.91-1.84-1.11,2.41a47.17,47.17,0,0,0-2.93,7.68A74.55,74.55,0,0,0,418,137l.84-.93,0,1.25c.1,3.25.52,6.29,1,6.92,1.09-1,2.14-4.34,2.47-5.56l.6-2.31.37,2.36c.7,4.44,2.51,11.74,4.4,12.44a.86.86,0,0,0,.9-.26,11.06,11.06,0,0,0,3.74-7l.08-1.31.82,1c1.88,2.41,4.43,4.89,5.14,4.74.05,0,.08-.11.1-.17.68-2.26-.47-5.52-.48-5.56l-.63-1.77,1.43,1.23c2.06,1.76,5.83,4.51,7.13,4.34a.3.3,0,0,0,.21-.09c.72-1-.73-4.59-2-6.81l.88-.49c.55,1,3.27,6,1.93,7.88a1.31,1.31,0,0,1-.91.51c-1.62.18-4.87-2.15-6.67-3.58a9.74,9.74,0,0,1,.06,4.63,1.13,1.13,0,0,1-.87.87c-1.43.26-4-2.53-5.41-4.23a12.08,12.08,0,0,1-3.91,6.53A2,2,0,0,1,427.94,152.24Z" style="fill:#263238"></path></g><g id="freepik--elephant-2--inject-2"><path d="M597.81,347s9.33,23.34,19.78,26.9,37.34,8.89,39.79,12.45,2.67,13.78,2.67,18.23,2.22,6.66,8,7.11,15.11-4.89,18.89-8,6.23-5.78,2.45-12.67-13.34-14-19.56-17.56-17.56-15.56-22-19.12-20-23.78-21.34-27.12l-1.33-3.33Z" style="fill:#b8b8b8"></path><path d="M668.76,412.17q-.39,0-.75,0c-5.85-.45-8.46-2.8-8.46-7.61,0-9.16-.92-15.53-2.58-17.95-1.48-2.15-14-5.38-24.13-8-6-1.55-11.71-3-15.41-4.28-10.54-3.59-19.7-26.22-20.09-27.18l-.13-.33L625.36,323l1.59,4c1.31,3.29,16.92,23.5,21.18,26.91,1.56,1.25,3.92,3.48,6.65,6.07,5,4.77,11.28,10.71,15.29,13,5.42,3.1,15.68,10.32,19.76,17.76,3.92,7.15,1.41,10-2.57,13.29C683.69,407,674.83,412.17,668.76,412.17ZM598.41,347.1c1.19,2.85,9.9,23.06,19.34,26.28,3.66,1.24,9.34,2.7,15.34,4.25,13.9,3.58,23.13,6.1,24.7,8.39,2.28,3.31,2.76,11.89,2.76,18.51,0,4.28,2.18,6.2,7.54,6.61,5.73.43,15-5,18.53-7.89,3.83-3.15,5.9-5.54,2.33-12-4-7.24-14.05-14.33-19.37-17.37-4.12-2.35-10.43-8.34-15.49-13.14-2.71-2.58-5.06-4.8-6.58-6-4.44-3.55-20.08-23.8-21.49-27.32l-1.08-2.69Z" style="fill:#263238"></path><path d="M682.57,382.76a73.28,73.28,0,0,0-12.74-9.35c-6.23-3.56-17.56-15.56-22-19.12s-20-23.78-21.34-27.12l-1.33-3.33L597.81,347s9.33,23.34,19.78,26.9,37.34,8.89,39.79,12.45c1.6,2.33,2.25,7.51,2.5,12.07C664.6,393.3,673.36,385.14,682.57,382.76Z" style="fill:#263238"></path><path d="M659.45,399.56l-.07-1.17c-.33-5.91-1.17-10-2.41-11.81-1.48-2.15-14-5.38-24.13-8-6-1.55-11.71-3-15.41-4.28-10.54-3.59-19.7-26.22-20.09-27.18l-.13-.33L625.36,323l1.59,4c1.31,3.29,16.92,23.5,21.18,26.91,1.56,1.25,3.92,3.48,6.65,6.07,5,4.77,11.28,10.71,15.29,13a73.62,73.62,0,0,1,12.84,9.42l.67.63-.88.23c-9.21,2.37-18,10.7-22.45,15.46Zm-61-52.46c1.19,2.85,9.9,23.06,19.34,26.28,3.66,1.24,9.34,2.7,15.34,4.25,13.9,3.58,23.13,6.1,24.7,8.39,1.28,1.86,2.13,5.62,2.52,11.17,4.56-4.76,12.65-12.1,21.26-14.67a73.87,73.87,0,0,0-12-8.68c-4.12-2.35-10.43-8.34-15.49-13.14-2.71-2.58-5.06-4.8-6.58-6-4.44-3.55-20.08-23.8-21.49-27.32l-1.08-2.69Z" style="fill:#263238"></path><path d="M538,331.62s10,10.89,13.56,16.22,5.12,24.45,12.9,32.68,16.44,9.78,18.44,12.67,8.23,10.22,10.45,13.78,5.56,5.56,8.89,4.22,13.12-6,13.56-13.56-3.33-13.33-6.67-15.11-9.78-1.11-11.33-2.22-10-7.56-11.12-11.78-.89-14-.89-17.79v-7.11Z" style="fill:#b8b8b8"></path><path d="M600.16,412.1c-2.63,0-5.26-1.72-7.22-4.86-1.3-2.08-4-5.49-6.38-8.5-1.66-2.09-3.23-4.07-4.06-5.27-.72-1-2.56-2-4.9-3.16a45.46,45.46,0,0,1-13.5-9.45c-4.89-5.17-7.36-14.56-9.35-22.1-1.22-4.65-2.28-8.67-3.59-10.64-3.5-5.24-13.41-16.06-13.51-16.16l-1.13-1.23,49.78,12.5v9.18c0,4.32-.08,12.35.88,16s8.4,9.7,10.92,11.5c.58.42,2.27.56,4.06.71,2.47.21,5.29.45,7.22,1.48,3.69,2,7.37,8.1,6.93,15.58-.47,8-10.74,12.74-13.87,14A6.12,6.12,0,0,1,600.16,412.1ZM539.5,332.5c2.71,3,9.66,10.82,12.49,15.07,1.41,2.11,2.48,6.2,3.73,10.93,2,7.44,4.39,16.69,9.11,21.68a44.69,44.69,0,0,0,13.23,9.24c2.55,1.29,4.4,2.23,5.27,3.49s2.36,3.13,4,5.21c2.4,3,5.12,6.47,6.45,8.59,2.26,3.62,5.43,5.16,8.28,4,2.13-.85,12.8-5.5,13.24-13.12.42-7.08-3-12.83-6.4-14.65-1.75-.93-4.45-1.16-6.84-1.36-2.09-.18-3.75-.32-4.55-.9-.1-.07-10-7.21-11.31-12.06-1-3.76-.94-11.57-.91-16.23V344Z" style="fill:#263238"></path><path d="M612.49,404.58v-.05s-3.34-3.34-5.56-3.12-.22,5.56-.22,5.56a26.11,26.11,0,0,0-6.23-2.44c-3.55-.89-.44,4.89-.44,4.89a5.66,5.66,0,0,0-3.33-2c-1.63-.33-.88,1.73-.35,2.85a5.94,5.94,0,0,0,5.9.92A30.18,30.18,0,0,0,612.49,404.58Z" style="fill:#fff"></path><path d="M600.14,412.11a7,7,0,0,1-4.09-1.43l-.1-.08-.06-.12c-.73-1.58-.87-2.63-.43-3.19a1.27,1.27,0,0,1,1.33-.37,6.56,6.56,0,0,1,1.91.72c-.4-1.14-.66-2.46-.1-3.18a1.8,1.8,0,0,1,2-.42,28,28,0,0,1,5.25,1.92c-.37-1.3-.78-3.3-.13-4.34a1.46,1.46,0,0,1,1.15-.7c2.4-.24,5.6,2.89,6,3.25l.11.11.08.4-.16.24c-3.57,3.81-8.88,6.12-10.42,6.74A6.23,6.23,0,0,1,600.14,412.11Zm-3.4-2.17a5.48,5.48,0,0,0,5.33.79,34.94,34.94,0,0,0,5.38-2.74l-1-.59a26.7,26.7,0,0,0-6.1-2.39c-.28-.07-.79-.16-1,.06-.45.59.38,2.8,1.08,4.11l-.85.53a5.14,5.14,0,0,0-3-1.8.71.71,0,0,0-.35,0C596.18,408,596.12,408.56,596.74,409.94Zm10.4-8H607a.48.48,0,0,0-.4.24c-.52.83.09,3.29.6,4.64l.41,1.11a23.39,23.39,0,0,0,4.22-3.33C610.76,403.61,608.61,401.9,607.14,401.9Z" style="fill:#263238"></path><path d="M586.69,368.52c-1.11-4.23-.89-14-.89-17.79v-7.11l-47.79-12s10,10.89,13.56,16.22c3.06,4.59,4.64,19.37,10,28.65-1-5.07-1.95-13.54,1.37-17.31,4.89-5.56,13.34-.22,17.11,3.56,2.27,2.26,5,4.68,6.85,6.26C586.81,368.84,586.74,368.67,586.69,368.52Z" style="fill:#263238"></path><path d="M562.6,379.33l-1.49-2.59c-3-5.22-4.78-12-6.36-18-1.22-4.64-2.28-8.66-3.59-10.63-3.5-5.24-13.41-16.06-13.51-16.16l-1.13-1.23,49.78,12.5v9.18c0,4.32-.08,12.35.88,16h0a2.44,2.44,0,0,0,.11.32l.74,2-1.49-1.28c-1.89-1.63-4.62-4-6.87-6.29s-7.16-5.92-11.68-5.8a6.31,6.31,0,0,0-4.71,2.22c-3.2,3.65-2.16,12.14-1.24,16.88ZM539.5,332.5c2.71,3,9.66,10.82,12.49,15.07,1.41,2.11,2.48,6.2,3.73,10.93a95.6,95.6,0,0,0,4.8,14.88c-.74-5.39-.74-11.4,2-14.53a7.3,7.3,0,0,1,5.43-2.56c4.85-.17,10.08,3.76,12.42,6.09,1.78,1.78,3.87,3.67,5.59,5.18-.74-4-.7-10.9-.67-15.15V344Z" style="fill:#263238"></path><path d="M567,380.81a.84.84,0,0,1-.84-.45c-.44-.93,1.64-3.39,6.2-7.33l.65.76c-2.59,2.24-5.4,5-5.86,6l.08,0c3-.54,8.5-6.31,8.55-6.37l.73.68c-.23.25-5.73,6.08-9.1,6.68A3.15,3.15,0,0,1,567,380.81Z" style="fill:#263238"></path><path d="M568.57,383.4h-.06l0-1c.07,0,2.64,0,6.24-4.55l.79.61C571.86,383.19,569,383.4,568.57,383.4Z" style="fill:#263238"></path><path d="M511.78,217s-13.25,6.89-21.47,5S471,213,463,226.79,442.88,262,438.9,277.14s2.92,28.09,7.42,38.16,7.42,20.14,4.51,28.35-7.69,16.43-7.95,24.38,3.18,11.93,5.83,12.19,2.65-4.77,2.65-4.77,5.56-.79,6.36-3.18-2.39-2.65-2.92-4.77.8-9.27,4.24-14.57,12.46-16.17,11.4-27.56-8.48-23.85-7.16-27.3,15.64-7.68,18.29-7.68,8.48,3.44,13,4,12.19-3.18,12.19-3.18-1.85,28.62,10.07,37.1,35.51,10.6,43.73,13.78,18.28,7.95,31.27,9.54a36,36,0,0,0,22.52-4.77s1.59,11.13,7.95,17.49,16.43,10.07,21.73,17.49,3.45,14.31,0,18.82-11.39,9.8-12.19,15.37,10.87,6.89,16.7,7.42,17-1.59,21.46-4,5.83-4.5,4.77-13.25-5-23.05-8.21-33.39-4.24-10.86-4.24-17.22,5.56-13.25,6.36-27,.79-24.12,1.32-31.27,4-15.9,6.36-14.31,8.75,23,12.72,30.74,13.52,19.87,13.52,19.87S693,315,689.86,307.08s-9.54-24.91-10.34-31.8-4.77-18.55-8.74-24.64-21.2-24.38-41.08-27.83-33.65.53-40.81,5-14.84,6.09-19.87,5-7.69-1.85-7.69-1.85S549.41,219.1,534,215.13,511.78,217,511.78,217Z" style="fill:#b8b8b8"></path><path d="M650.52,424c-.73,0-1.42,0-2-.08-6.23-.57-13.71-1.64-16.29-4.9a3.88,3.88,0,0,1-.85-3.09c.55-3.89,4.26-7.47,7.85-10.94a46.31,46.31,0,0,0,4.43-4.66c2-2.65,6.07-9.72,0-18.22-3-4.19-7.61-7.23-12.09-10.18a60.53,60.53,0,0,1-9.58-7.25c-5.53-5.53-7.49-14.41-8-17a37.11,37.11,0,0,1-22.21,4.46c-11-1.34-20-5-27.26-7.92-1.43-.58-2.81-1.14-4.13-1.65a95.59,95.59,0,0,0-12.07-3c-10.55-2.25-23.68-5.05-31.77-10.8-11-7.82-10.54-31.82-10.32-36.7-2.08.92-7.91,3.32-11.71,2.87a33.14,33.14,0,0,1-7.62-2.34c-2.13-.84-4.13-1.63-5.3-1.63-2.54,0-16.63,4.25-17.82,7.36-.57,1.47.82,5.25,2.43,9.63,1.87,5.08,4.19,11.41,4.75,17.44.93,10-5.75,19.61-9.75,25.36-.65.94-1.24,1.78-1.72,2.52-3.4,5.24-4.65,12.26-4.17,14.18a3.45,3.45,0,0,0,1.44,1.75c.9.72,2,1.61,1.46,3.3-.76,2.29-4.93,3.2-6.35,3.45,0,.95-.3,3.23-1.46,4.28a2.12,2.12,0,0,1-1.72.56c-3.24-.32-6.54-4.88-6.28-12.7.19-5.69,2.67-11.56,5.07-17.25,1-2.39,2-4.86,2.9-7.28,3.19-9-1-20.27-4.48-28L444.72,313c-4.46-9.76-10-21.92-6.3-36,4.15-15.78,17.17-38.35,24.16-50.47,6.73-11.65,15.87-8.72,23.21-6.36,1.63.53,3.18,1,4.63,1.35,7.71,1.74,20.22-4.53,21.08-5,.69-.55,7.71-5.78,22.66-1.91,14.61,3.77,26.28,14.81,27.43,15.93.57.17,3.16.89,7.53,1.82,5.28,1.11,12.94-.84,19.5-5,4.59-2.89,17.77-9.16,41.17-5.11,19.88,3.45,37.31,21.76,41.4,28.05,3.86,5.91,8,17.52,8.83,24.86.75,6.56,6.83,23,10.3,31.67,3.13,7.84,12.6,26.27,12.7,26.46l-.84.53c-.09-.12-9.61-12.31-13.56-19.95-1.79-3.46-4-9.63-6.21-15.6-2.42-6.64-5.16-14.17-6.35-14.95a.59.59,0,0,0-.65,0c-1.82.89-4.45,7.5-4.93,13.95-.25,3.42-.39,7.62-.54,12.49-.18,5.43-.37,11.59-.79,18.77A61,61,0,0,1,665,346.85c-1.23,3.41-2.2,6.11-2.2,8.73,0,4.45.53,6,2,10.2.6,1.74,1.34,3.9,2.25,6.88,2.07,6.73,7,23.46,8.24,33.47,1.08,8.92-.31,11.26-5,13.76C666,422.11,656.65,424,650.52,424Zm-35.81-78,.12.78c0,.11,1.64,11,7.8,17.21a59.45,59.45,0,0,0,9.43,7.12c4.55,3,9.26,6.1,12.36,10.43,6.46,9.06,2.14,16.59,0,19.41a45.63,45.63,0,0,1-4.54,4.78c-3.3,3.19-7,6.81-7.55,10.36a2.89,2.89,0,0,0,.64,2.33c2.65,3.34,12.06,4.2,15.6,4.52,5.61.52,16.69-1.54,21.19-3.92,4.13-2.18,5.58-3.85,4.5-12.75-1.2-9.93-6.13-26.59-8.19-33.3-.92-3-1.65-5.11-2.24-6.84-1.47-4.31-2-5.92-2-10.53,0-2.8,1-5.7,2.25-9.07a59.86,59.86,0,0,0,4.11-18c.41-7.17.6-13.32.78-18.74.15-4.88.29-9.1.54-12.54.43-5.8,2.92-13.52,5.49-14.77a1.6,1.6,0,0,1,1.65.08c1.38.93,3.46,6.47,6.72,15.45,2.17,5.93,4.4,12.08,6.16,15.48a134,134,0,0,0,10.09,15.32c-3.07-6.09-8.07-16.22-10.2-21.53-1-2.4-9.42-23.72-10.37-31.93-.83-7.21-4.88-18.62-8.66-24.43-4-6.18-21.18-24.21-40.74-27.6-23-4-36,2.14-40.46,5-6.77,4.27-14.73,6.27-20.25,5.1-5-1.05-7.7-1.85-7.72-1.86l-.12,0-.09-.09c-.12-.12-12-11.87-27.07-15.77-14.9-3.85-21.75,1.7-21.81,1.76l-.09.06c-.55.28-13.51,6.95-21.81,5.08-1.5-.34-3.06-.84-4.72-1.38-7.36-2.36-15.71-5-22,5.91-7,12.08-19.95,34.57-24.07,50.23-3.6,13.69,1.86,25.67,6.25,35.29l1.15,2.53c3.52,7.88,7.82,19.42,4.52,28.73-.87,2.45-1.92,4.94-2.93,7.34-2.37,5.6-4.81,11.39-5,16.89-.26,7.66,3,11.44,5.38,11.68a1.22,1.22,0,0,0,.95-.31c.94-.85,1.15-3.15,1.15-4V375l.43-.06c1.46-.21,5.38-1.13,5.95-2.84.33-1-.16-1.44-1.13-2.21a4.29,4.29,0,0,1-1.79-2.29c-.61-2.42.93-9.78,4.3-15,.49-.75,1.08-1.6,1.74-2.55,3.92-5.64,10.47-15.08,9.58-24.69-.55-5.9-2.85-12.17-4.7-17.2s-3.12-8.51-2.43-10.33c1.46-3.79,16.17-8,18.76-8,1.36,0,3.35.79,5.67,1.7a32.43,32.43,0,0,0,7.37,2.28c4.31.5,11.84-3.1,11.91-3.14l.78-.37-.06.86c0,.28-1.7,28.44,9.86,36.66,7.92,5.63,20.94,8.4,31.4,10.64a94.17,94.17,0,0,1,12.22,3.08c1.33.51,2.71,1.07,4.15,1.65,7.21,2.91,16.18,6.53,27,7.86a35.67,35.67,0,0,0,22.18-4.69Z" style="fill:#263238"></path><path d="M508,307.83s6.66-14.44,16.89-18.67,26.67-8.44,34.9-16.45-3.11-28.23-3.11-28.23-6.45,16.23-20.23,22.45-16.67,8.67-18.23,13.79-3.33,9.55-6.45,11.55a42.62,42.62,0,0,1-5.11,2.89Z" style="fill:#263238"></path><path d="M507.7,309.69l-1.56-14.84.33-.14a41.83,41.83,0,0,0,5-2.86c3.07-2,4.81-6.58,6.24-11.28,1.67-5.47,5-8,18.5-14.09s19.91-22,20-22.18l.39-1,.51.92c.47.84,11.43,20.66,3,28.83-6.26,6.09-17,9.94-26.5,13.35-3.1,1.11-6,2.16-8.56,3.2-9.92,4.1-16.56,18.28-16.63,18.42Zm-.49-14.23,1.11,10.62c2.05-3.88,8-13.91,16.39-17.38,2.56-1.06,5.49-2.11,8.6-3.22,9.39-3.37,20-7.19,26.14-13.13,6.89-6.7-.68-22.74-2.72-26.72-1.66,3.62-8.21,16.41-20.07,21.76-13.95,6.3-16.48,8.65-17.95,13.47s-3.32,9.69-6.65,11.83A45.56,45.56,0,0,1,507.21,295.46Z" style="fill:#263238"></path><path d="M500.12,244.81s-3.45,13.78-2.92,24.11,2.65,21.73,2.92,25.44-2.92,8.22-1.59,9S513.1,297,519.2,291.71s7.68-15.9,10.6-16.43,20.93-7.15,27.56-19.08,5.3-20.67-1.06-27.29" style="fill:#b8b8b8"></path><path d="M498.75,303.9a.9.9,0,0,1-.48-.1c-1-.61-.48-2.12.19-4a14.51,14.51,0,0,0,1.16-5.37c-.09-1.26-.4-3.44-.8-6.2-.74-5.26-1.77-12.46-2.12-19.25-.53-10.29,2.9-24.12,2.93-24.26l1,.24c0,.14-3.42,13.83-2.9,24,.35,6.74,1.37,13.92,2.11,19.16.4,2.77.71,5,.81,6.27a15.09,15.09,0,0,1-1.22,5.77c-.37,1.06-.93,2.66-.62,2.85,1.34.33,13.8-6.15,20.09-11.61,3.21-2.8,5.16-7.15,6.73-10.65,1.46-3.26,2.51-5.61,4.11-5.9,3.29-.59,20.86-7.41,27.21-18.83,6.08-10.94,5.76-19.68-1-26.7l.72-.7c7.08,7.39,7.46,16.51,1.13,27.89-6.95,12.51-25.64,18.91-27.91,19.33-1.07.19-2.19,2.68-3.37,5.31-1.6,3.59-3.6,8.06-7,11C514.29,296.65,501.79,303.9,498.75,303.9Z" style="fill:#263238"></path><path d="M501.94,238.46l-1,0c0-.44.33-10.63,5.5-14.44s12.54-6.32,12.86-6.43l.32,1c-.07,0-7.67,2.67-12.58,6.29S501.94,238.36,501.94,238.46Z" style="fill:#263238"></path><path d="M485.36,264l-.7-.71c4.38-4.38,12.31-2.85,12.64-2.79l-.2,1C497,261.45,489.36,260,485.36,264Z" style="fill:#263238"></path><ellipse cx="465.4" cy="255.67" rx="2.12" ry="3.44" style="fill:#263238"></ellipse><path d="M458.89,244.6l-.76-.64c.15-.19,3.8-4.44,7.71-4.09,1.9.18,3.5,1.4,4.77,3.63l-.87.5c-1.1-1.94-2.44-3-4-3.13C462.36,240.54,458.93,244.56,458.89,244.6Z" style="fill:#263238"></path><path d="M470.07,266.75c-.22,0-.45,0-.67,0-4.1-.42-6.94-4.49-7.06-4.67l.82-.56s2.71,3.87,6.34,4.24a6.74,6.74,0,0,0,5.36-2.2l.69.72A7.9,7.9,0,0,1,470.07,266.75Z" style="fill:#263238"></path><path d="M460.37,275.55s.26,5.56-1.33,6.89-3.71,3.18-3.44,4.5l.26,1.33s5-1.86,7.95-.27,3.71,6.36,4.24,7.16,3.45.53,5.3-2.39,6.36-9.54,5.83-14.31" style="fill:#b8b8b8"></path><path d="M469.1,296.05a1.71,1.71,0,0,1-1.47-.61,6.77,6.77,0,0,1-.53-1.35c-.57-1.7-1.52-4.55-3.53-5.65-2.68-1.46-7.49.28-7.54.3l-.54.2-.38-1.9c-.32-1.56,1.7-3.39,3.61-5,1-.85,1.24-4.43,1.15-6.49l1,0c0,.59.22,5.85-1.51,7.29-1.05.88-3.5,2.92-3.27,4l.15.77c1.43-.45,5.29-1.43,7.81-.05,2.36,1.28,3.39,4.36,4,6.2a7,7,0,0,0,.42,1.11c0,.06.26.18.66.17a5,5,0,0,0,3.8-2.54l.39-.62c2-3.17,5.84-9.09,5.36-13.37l1-.11c.51,4.64-3.41,10.74-5.52,14l-.39.61a6,6,0,0,1-4.63,3Z" style="fill:#263238"></path><path d="M482.66,279.52c-1-.72-4.24-.66-6.09-.45l-.11-1c.53-.06,5.22-.53,6.8.65Z" style="fill:#263238"></path><path d="M455.86,288.27a38.32,38.32,0,0,1-8.61,10.36c-5.71,4.79-11.42,5.53-10.86,6.63s5.15,2.4,13.62-.18,15.65-7.32,18-9.92c0,0-1.3-5.27-4.24-7.16S456.37,287.48,455.86,288.27Z" style="fill:#fff"></path><path d="M441.21,307.09c-3,0-4.83-.73-5.27-1.6a.78.78,0,0,1,0-.65c.21-.59,1-.93,2.59-1.63a32.64,32.64,0,0,0,8.44-5A38.42,38.42,0,0,0,455.42,288l0,0c.74-1.15,5.6-2.36,8.64-.42s4.4,7.24,4.46,7.46l.06.26-.18.2c-2.39,2.59-9.63,7.43-18.27,10.06A31.57,31.57,0,0,1,441.21,307.09Zm-4.32-2c.61.69,4.71,2,13-.52s15.15-7,17.64-9.58c-.31-1.06-1.58-5.07-4-6.6-2.74-1.75-6.84-.41-7.25.11A38.61,38.61,0,0,1,447.57,299a34,34,0,0,1-8.68,5.11A12.6,12.6,0,0,0,436.89,305.12Z" style="fill:#263238"></path><path d="M452.8,267.34c-2.77-2.59-8.81-2.63-8.87-2.63v-1c.27,0,6.49,0,9.55,2.9Z" style="fill:#263238"></path><path d="M449.44,282.34c-4.94-2.12-10.85-.72-10.91-.71l-.24-1c.26-.06,6.3-1.49,11.55.76Z" style="fill:#263238"></path><path d="M447,313.18l-.67-.74c.09-.09,2.43-2.17,7-1.6l-.12,1C449.12,311.32,447.05,313.16,447,313.18Z" style="fill:#263238"></path><polygon points="550.91 324.28 550.68 338.73 543.35 338.29 550.91 324.28" style="fill:#263238"></polygon><path d="M551.18,339.26l-8.64-.52,8.9-16.49Zm-7-1.43,6,.37.19-11.88Z" style="fill:#263238"></path><path d="M511.12,300.72A38.7,38.7,0,0,1,508,317.39c-3.78,8.89-14,36.23-17.12,51.35s-5.56,28.89-5.56,28.89S478,401.86,476,406.3s-1.11,5.56,3.33,8.45,14,5.56,22,4,11.33-5.56,12-8-1.56-12.45-1.56-14.67,6-20.67,11.56-30.23,17.56-18.23,23.79-30.68,8.44-26.23,7.11-31.78" style="fill:#b8b8b8"></path><path d="M496.32,419.71c-6.53,0-13.39-2-17.26-4.54-4.44-2.89-5.7-4.23-3.52-9.07,1.88-4.18,8.11-8.05,9.34-8.78.33-1.86,2.66-14.78,5.52-28.68,3.16-15.33,13.4-42.64,17.15-51.44a38.4,38.4,0,0,0,3.07-16.44l1-.08a38.92,38.92,0,0,1-3.15,16.91c-3.73,8.77-14,36-17.09,51.25-3.08,14.93-5.53,28.74-5.55,28.88l-.05.23-.2.12c-.07,0-7.22,4.19-9.13,8.44s-1.16,5,3.15,7.82c4,2.6,13.37,5.54,21.64,3.93,7.95-1.54,11-5.53,11.62-7.64.39-1.45-.37-6.17-.92-9.62a45.22,45.22,0,0,1-.65-4.92c0-2.55,6.17-21.11,11.62-30.48,2.47-4.25,6.18-8.3,10.1-12.59,5-5.48,10.22-11.15,13.67-18.06,6.1-12.2,8.42-25.82,7.07-31.45l1-.23c1.39,5.79-1,19.72-7.16,32.13-3.51,7-8.75,12.75-13.82,18.29-3.89,4.24-7.56,8.25-10,12.41-5.51,9.47-11.49,27.88-11.49,30,0,.78.31,2.71.63,4.76.64,3.93,1.35,8.39.9,10-.79,2.9-4.51,6.83-12.39,8.36A26.68,26.68,0,0,1,496.32,419.71Z" style="fill:#263238"></path><path d="M479.33,414.75a29.37,29.37,0,0,0,8.75,3.46c.87-2.52,1.57-6.37.81-8.35-1.11-2.89-4,2-4,2s1.11-4.22-.67-6.67-4.67,4.45-4.67,4.45a10.62,10.62,0,0,0,.23-4.67c-.45-2.67-3.78,1.33-3.78,1.33C474,410.75,474.89,411.86,479.33,414.75Z" style="fill:#fff"></path><path d="M488.41,418.8l-.44-.11a29.87,29.87,0,0,1-8.91-3.52h0c-4.44-2.89-5.7-4.23-3.52-9.07l.07-.12c.54-.65,2.42-2.74,3.71-2.39.35.1.8.4.95,1.3a12.09,12.09,0,0,1,.16,1.91c.76-1.27,1.76-2.51,2.76-2.62a1.5,1.5,0,0,1,1.44.72,7.67,7.67,0,0,1,1.07,5,3.22,3.22,0,0,1,2.32-1.42c.41,0,1,.28,1.34,1.23.79,2.07.14,6-.81,8.69Zm-8.81-4.47a28.26,28.26,0,0,0,8.15,3.28c.83-2.6,1.31-5.91.67-7.57-.1-.26-.26-.57-.48-.59-.69,0-2,1.56-2.62,2.67l-1.82,3.07.91-3.46s1-4-.59-6.24c-.26-.35-.45-.33-.51-.32-1,.11-2.51,2.79-3.3,4.66l-.93-.35a10.34,10.34,0,0,0,.2-4.43c0-.28-.13-.47-.22-.49-.46-.13-1.74.95-2.64,2-1.81,4.06-1.11,5,3.18,7.76Z" style="fill:#263238"></path><path d="M506.13,365.67c-.33-.06-8.19-1.61-10.5-4.15-.44-.49-.54-.91-.31-1.28.55-.86,3.74-.41,9.5,1.35l-.29,1c-3.28-1-7.13-1.9-8.21-1.77l.05.06c2.09,2.3,9.87,3.84,9.95,3.85Z" style="fill:#263238"></path><path d="M502,367.24c-6.41-.69-7.88-3.27-7.94-3.37l.87-.49s1.36,2.24,7.18,2.86Z" style="fill:#263238"></path><path d="M614.57,347.28l-.47-.89c.13-.07,13.77-7.5,17.23-21.12,2.82-11.08,1.41-20.67.74-25.27a22.47,22.47,0,0,1-.31-2.61h1a22.37,22.37,0,0,0,.3,2.46c.68,4.67,2.11,14.39-.76,25.67C628.73,339.57,614.71,347.2,614.57,347.28Z" style="fill:#263238"></path><path d="M625.15,338.51s-6.45,9.78-7.34,12.45a11,11,0,0,0-.66,4.44l-2.82-8.57S624.48,341,625.15,338.51Z" style="fill:#263238"></path><path d="M616.67,355.56l-2.94-9,.35-.2c3.18-1.84,8-5,9.87-7l.78-1.21,1.73-2.61-.83,3a3.72,3.72,0,0,1-.82,1.31c-1.73,2.66-5.84,9.13-6.52,11.16a10.85,10.85,0,0,0-.65,4.23Zm-1.74-8.5,1.89,5.74a14.52,14.52,0,0,1,.52-2c.52-1.57,2.84-5.42,4.74-8.45A78.72,78.72,0,0,1,614.93,347.06Z" style="fill:#263238"></path><path d="M649.56,423.48c-.33-3.3-1-7.5-2.63-8.28-1.8-.91-3,1.13-3.58,2.55.65-2.08,1.54-6.18-1.09-7-3.07-1-5.65,3.73-6.29,5,.47-1,1.85-4.05,1.85-5.9,0-2.22-4.89,3.78-4.89,3.78l-.37,0a8.3,8.3,0,0,0-.74,2.33c-.79,5.56,10.87,6.89,16.7,7.42C648.84,423.45,649.2,423.47,649.56,423.48Z" style="fill:#fff"></path><path d="M650.11,424l-.57,0c-.37,0-.73,0-1.07-.06-6.23-.57-13.71-1.64-16.29-4.9a3.88,3.88,0,0,1-.85-3.09,8.45,8.45,0,0,1,.78-2.47l.12-.26.44,0c2.56-3.11,4.27-4.54,5.1-4.25a.89.89,0,0,1,.55.95,8.18,8.18,0,0,1-.34,2.06c1.2-1.25,2.73-2.18,4.43-1.65s2.39,2.22,2.05,4.86a3.09,3.09,0,0,1,.84-.52,2.26,2.26,0,0,1,1.86.14c1.42.71,2.39,3.63,2.89,8.68Zm-17.22-9.86a7.18,7.18,0,0,0-.57,1.93,2.89,2.89,0,0,0,.64,2.33c2.65,3.34,12.06,4.2,15.6,4.52.14,0,.29,0,.44,0-.65-5.87-1.81-7.07-2.29-7.31a1.27,1.27,0,0,0-1.05-.09,4.05,4.05,0,0,0-1.84,2.39l-.94-.34c.52-1.68,1.49-5.67-.77-6.37-2.73-.86-5.22,3.81-5.69,4.75l-.9-.43c.42-.88,1.76-3.86,1.8-5.62a20.62,20.62,0,0,0-4,4l-.14.16Z" style="fill:#263238"></path><path d="M646.16,381.45a4.28,4.28,0,0,1-.83-.07c-.65-.11-1-.38-1-.81-.1-1,2.7-2.62,8.33-4.76l.35.93c-3.2,1.22-6.79,2.87-7.56,3.64l.08,0c3.06.52,10.15-3,10.22-3.07l.45.89C655.89,378.37,649.75,381.45,646.16,381.45Z" style="fill:#263238"></path><path d="M646.94,384.45a3.92,3.92,0,0,1-1.46-.22l.4-.92s2.44.94,7.42-2.14l.52.85C650.58,384,648.29,384.45,646.94,384.45Z" style="fill:#263238"></path><path d="M702.58,333.58s-.74,8.26,3.26,12.71,8.22,5.33,10.22,6.89a32.17,32.17,0,0,1,3.78,3.56s-1.78-6.45-3.11-8.45-2-3.11-2-3.11l3.78,2.22a12.85,12.85,0,0,0-4.67-10.67A15.22,15.22,0,0,0,702.58,333.58Z" style="fill:#263238"></path><path d="M720.89,358.67l-1.42-1.6a33,33,0,0,0-3.72-3.5,14.88,14.88,0,0,0-2.47-1.39,23.74,23.74,0,0,1-7.82-5.56c-4.1-4.55-3.41-12.73-3.38-13.08l0-.38.38-.07a15.56,15.56,0,0,1,11.66,3.25A13.18,13.18,0,0,1,719,347.45l-.08.77-2.67-1.57.89,1.36c1.37,2,3.11,8.33,3.18,8.59ZM703.05,334c-.08,1.68-.16,8.24,3.16,11.92a22.48,22.48,0,0,0,7.51,5.33,16.55,16.55,0,0,1,2.65,1.5,28.16,28.16,0,0,1,2.41,2.14,32.15,32.15,0,0,0-2.47-6.35c-1.32-2-2-3.12-2-3.14l-1-1.68,4.74,2.79a12.27,12.27,0,0,0-4.5-9.42A14.91,14.91,0,0,0,703.05,334Z" style="fill:#263238"></path></g><g id="freepik--baby-elephant--inject-2"><path d="M423.6,400a16.28,16.28,0,0,0,8.46,5.77,10.94,10.94,0,0,1,7.3,6.15s-3.26,2.31-2.49,5,8.65,1.73,10.95,1.15,4.43-.19,4.62-5.19-.77-11.73-5.58-17.3-8.84-4-12.3-9.62-4.81-13.07-4.81-13.07-7.5,6.92-8.65,14.8S423.6,400,423.6,400Z" style="fill:#b8b8b8"></path><path d="M442,419.23c-2.59,0-5.11-.47-5.6-2.15-.71-2.49,1.51-4.59,2.37-5.3a10.84,10.84,0,0,0-6.83-5.52,16.67,16.67,0,0,1-8.72-5.94c-.31-.38-3.74-4.85-2.59-12.68s8.49-14.81,8.8-15.1l.67-.61.16.89c0,.08,1.38,7.47,4.74,12.9a11.78,11.78,0,0,0,5.73,4.76,18.42,18.42,0,0,1,6.53,4.79c5,5.85,5.88,12.83,5.7,17.65s-2.07,5.07-4.08,5.46c-.3.06-.6.12-.91.2A29.62,29.62,0,0,1,442,419.23Zm-12.53-45.31c-1.83,1.87-6.94,7.6-7.85,13.87-1.11,7.54,2.35,11.87,2.39,11.91l0,0a15.92,15.92,0,0,0,8.18,5.57c5.95,1.78,7.57,6.27,7.64,6.46l.12.36-.31.22s-3,2.14-2.3,4.45c.59,2.06,7.61,1.49,10.35.81.33-.09.65-.15,1-.21,1.88-.37,3.12-.61,3.27-4.52.18-4.64-.63-11.35-5.46-17a17.21,17.21,0,0,0-6.21-4.54,12.83,12.83,0,0,1-6.14-5.13A42,42,0,0,1,429.45,373.92Z" style="fill:#263238"></path><path d="M444,418.65c0-.5,0-1.8-.16-2.91-.15-1.41-2.51.47-2.51.47a3.43,3.43,0,0,0-.47-1.73c-.47-.63-1.88.95-1.88.95l-.47-1.58c-.48-1.57-1.26,1.58-1.26,1.58l-.48.4a3,3,0,0,0,.1,1.11C437.37,418.71,441,418.89,444,418.65Z" style="fill:#fff"></path><path d="M442,419.24c-2.58,0-5.08-.46-5.57-2.16a3.7,3.7,0,0,1-.11-1.29l0-.21.51-.43c.58-2.22,1.14-2.23,1.38-2.23h0c.36,0,.63.26.78.79l.24.79a2.26,2.26,0,0,1,1.38-.66.85.85,0,0,1,.66.34,3,3,0,0,1,.47,1.13,2.5,2.5,0,0,1,2-.52,1,1,0,0,1,.6.89c.12,1.08.15,2.32.16,3v.47l-.47,0C443.36,419.21,442.65,419.24,442,419.24Zm-4.7-3.17a2.48,2.48,0,0,0,.1.73c.31,1.08,2.64,1.6,6.14,1.39,0-.66-.05-1.58-.14-2.4a.26.26,0,0,0,0-.1,4.07,4.07,0,0,0-1.68.91l-.8.65v-1a3,3,0,0,0-.33-1.37,3.74,3.74,0,0,0-1.15.92l-.6.66-.63-2.09a10.38,10.38,0,0,0-.39,1.22l0,.15Z" style="fill:#263238"></path><path d="M434.56,386c-3.46-5.57-4.81-13.07-4.81-13.07s-7.5,6.92-8.65,14.8S423.6,400,423.6,400a15.62,15.62,0,0,0,5.37,4.5c1.3-4.62,3.73-12.32,6-14.31a14.31,14.31,0,0,1,2-1.44A11.51,11.51,0,0,1,434.56,386Z" style="fill:#263238"></path><path d="M429.29,405.25l-.55-.29a16.08,16.08,0,0,1-5.56-4.66c-.12-.15-3.75-4.65-2.57-12.66s8.49-14.81,8.8-15.1l.67-.61.16.89c0,.08,1.38,7.47,4.74,12.9h0a10.6,10.6,0,0,0,2.27,2.66l.53.45-.6.36a13.61,13.61,0,0,0-1.91,1.4c-1.58,1.39-3.7,6.52-5.82,14.07Zm.16-31.33c-1.83,1.87-6.94,7.6-7.85,13.87-1.11,7.57,2.35,11.87,2.39,11.91a15,15,0,0,0,4.67,4.08c1.55-5.44,3.8-12,5.95-13.94a13,13,0,0,1,1.49-1.14,12.74,12.74,0,0,1-2-2.45h0A42,42,0,0,1,429.45,373.92Z" style="fill:#263238"></path><path d="M361.69,369.07s5.39,20.95,6.93,31.53,6,15.18,10.95,17.11,8.46-.2,10-3.46,1.15-7.69-1.34-8.27-6-.19-6.54-1.73-.58-5,.38-8.27S384,377.72,384,377.72s-16.15-8.65-18.65-9A5.48,5.48,0,0,0,361.69,369.07Z" style="fill:#b8b8b8"></path><path d="M383.19,418.94a10.53,10.53,0,0,1-3.8-.77c-6.22-2.39-9.9-8.12-11.27-17.5-1.52-10.43-6.86-31.27-6.91-31.48l-.09-.34.3-.2a5.92,5.92,0,0,1,4-.46c2.56.39,18.15,8.73,18.81,9.09l.29.15,0,.32c0,.61-1,15.09-1.95,18.37s-.93,6.53-.39,7.95c.28.75,1.92.9,3.51,1.05a22.59,22.59,0,0,1,2.67.37,3.12,3.12,0,0,1,2.06,1.77,9,9,0,0,1-.38,7.2A7.43,7.43,0,0,1,383.19,418.94Zm-20.91-49.6c.75,3,5.42,21.51,6.83,31.18,1.31,9,4.79,14.47,10.64,16.72,4.17,1.6,7.67.4,9.37-3.21a8.14,8.14,0,0,0,.38-6.33,2.07,2.07,0,0,0-1.39-1.23,19.53,19.53,0,0,0-2.53-.35c-2-.19-3.86-.36-4.36-1.7-.58-1.55-.65-5.09.37-8.58.86-2.92,1.74-15.64,1.89-17.83-4.68-2.5-16.27-8.54-18.21-8.83A6.05,6.05,0,0,0,362.28,369.34Z" style="fill:#263238"></path><path d="M389.57,414.25a9.75,9.75,0,0,0,.84-3A10.19,10.19,0,0,0,387,411c-1.58.31.78,2.51.78,2.51a8.2,8.2,0,0,0-3.3.16c-1.41.47,1.42,2.51,1.42,2.51a19.69,19.69,0,0,0-2.2.47c-.76.22.19,1.1.86,1.63A7,7,0,0,0,389.57,414.25Z" style="fill:#fff"></path><path d="M384.43,418.84l-.18-.14c-1-.81-1.42-1.37-1.32-1.88a.82.82,0,0,1,.63-.62c.41-.12.82-.21,1.17-.29-.61-.56-1.23-1.29-1.13-1.91a1,1,0,0,1,.72-.78,7.06,7.06,0,0,1,2.24-.28,2.13,2.13,0,0,1-.57-1.67,1.09,1.09,0,0,1,.91-.73,10.31,10.31,0,0,1,3.61.21l.45.09,0,.46a10.37,10.37,0,0,1-.89,3.16h0a7.4,7.4,0,0,1-5.37,4.34Zm-.41-1.73a4,4,0,0,0,.67.66,6.41,6.41,0,0,0,4.32-3.52L387.7,414a7.88,7.88,0,0,0-3.06.14c-.05.24.73,1,1.55,1.64l1,.72-1.22.18A16.71,16.71,0,0,0,384,417.11Zm3.85-5.65a4.42,4.42,0,0,0-.78.06.3.3,0,0,0-.15.05,4.09,4.09,0,0,0,1.18,1.61l1,.9,0-.05h0a9.16,9.16,0,0,0,.73-2.38A12.19,12.19,0,0,0,387.87,411.46Z" style="fill:#263238"></path><path d="M368.42,399.33c3-2.1,9-5.57,13.81-4,.91-4.22,1.77-17.62,1.77-17.62s-16.15-8.65-18.65-9a5.48,5.48,0,0,0-3.66.39S366.67,388.45,368.42,399.33Z" style="fill:#263238"></path><path d="M368.05,400.2l-.12-.79c-1.73-10.74-6.67-30-6.72-30.22l-.09-.34.3-.2a5.92,5.92,0,0,1,4-.46c2.56.39,18.15,8.73,18.81,9.09l.29.15,0,.32c0,.55-.88,13.48-1.78,17.7l-.12.54-.52-.17c-4.6-1.51-10.35,1.81-13.37,3.92Zm-5.77-30.86c.7,2.77,4.82,19.12,6.51,29.14,3.17-2.12,8.48-4.92,13.06-3.77.77-4.21,1.49-14.73,1.63-16.7-4.68-2.5-16.27-8.54-18.21-8.83A6.05,6.05,0,0,0,362.28,369.34Z" style="fill:#263238"></path><path d="M360.93,317.73s8.84,6.93,19.22,2.5,13.65-11.15,21.92-11.15,24.8,11.35,32.3,21.54,18.07,47.29,18.07,47.29-4.81-8.27-6.35-11.54-8.65-22.49-8.65-22.49,3.65,17.3,1.35,23.26-12.88,13.27-13.46,19.23,1.54,17.49,2.69,21.72,1.54,8.46,1,11-5,4.23-10.76,4.42-12.69-.57-12.5-4.23,7.88-9.8,6-13.45-7.69-9.62-9-14a36,36,0,0,1-1.53-7.11s-11.35,1-16.54-2.5-16.72-9.81-16.72-9.81-18.46-5-22.5-7.49-5.19-9.42-5.19-9.42S355.73,342,358.62,335,360.93,317.73,360.93,317.73Z" style="fill:#b8b8b8"></path><path d="M416.59,424c-3.57,0-8.46-.41-10.46-2.45a3,3,0,0,1-.91-2.33c.09-1.69,1.53-3.71,3.06-5.85,1.93-2.71,3.93-5.51,3-7.35a44.62,44.62,0,0,0-3.5-5.07c-2.22-2.94-4.73-6.28-5.57-9.05a40.48,40.48,0,0,1-1.51-6.73c-2.27.15-11.65.53-16.37-2.61-4.93-3.3-15.78-9.29-16.63-9.76-1.34-.36-18.59-5.08-22.57-7.54-4.18-2.59-5.37-9.47-5.42-9.76l-.05-.28.21-.18c.16-.14,15.52-13.46,18.33-20.2s2.27-17,2.27-17.08l-.06-1.1.86.68c.09.07,8.75,6.68,18.72,2.43a48.81,48.81,0,0,0,10.11-6c3.78-2.76,7-5.14,12-5.14,8.12,0,24.93,11.18,32.7,21.74,7.46,10.14,17.72,45.93,18.15,47.45l1.09,3.85-2-3.46c-.2-.34-4.84-8.32-6.37-11.57-1-2.19-4.48-11.32-6.71-17.27.89,5.64,1.84,14.09.32,18-1.06,2.75-3.69,5.63-6.48,8.68-3.26,3.58-6.64,7.28-6.94,10.42-.55,5.68,1.45,17,2.67,21.54s1.56,8.65,1,11.2c-.63,2.72-5,4.61-11.24,4.81C417.73,424,417.18,424,416.59,424Zm-15-39.9,0,.5a35.46,35.46,0,0,0,1.51,7c.8,2.6,3.25,5.86,5.42,8.74a43.28,43.28,0,0,1,3.58,5.2c1.26,2.39-.92,5.44-3,8.4-1.38,1.93-2.8,3.93-2.87,5.32a2,2,0,0,0,.62,1.58c1.51,1.54,5.65,2.32,11.36,2.12s9.79-1.84,10.3-4c.55-2.41.18-6.51-1-10.71-1.05-3.85-3.32-15.61-2.71-21.91.34-3.47,3.83-7.29,7.2-11,2.61-2.85,5.3-5.8,6.29-8.37,2.23-5.75-1.33-22.8-1.37-23l1-.27c.07.19,7.13,19.24,8.64,22.45.84,1.8,2.71,5.17,4.2,7.8-3-9.93-10.9-35-16.79-43-7.62-10.36-24-21.33-31.89-21.33-4.64,0-7.63,2.18-11.42,4.94a49.57,49.57,0,0,1-10.3,6.17c-8.68,3.7-16.39-.39-18.89-2,.07,2.79,0,10.76-2.38,16.52-2.74,6.58-16.39,18.65-18.37,20.37.26,1.28,1.55,6.73,4.91,8.81,3.93,2.43,22.17,7.39,22.36,7.44l.11,0c.11.06,11.61,6.39,16.76,9.82,5,3.33,16.1,2.43,16.21,2.42Z" style="fill:#263238"></path><path d="M410.55,419.82s-.16-1.25-.47-3.14-2.83,2-2.83,2a13.78,13.78,0,0,0,.63-2.51c.12-.67-.3-.53-.86-.12a7.28,7.28,0,0,0-1.3,3.15c-.13,2.55,3.2,3.7,7.19,4.09a42.2,42.2,0,0,0,0-6C412.59,415.58,410.55,419.82,410.55,419.82Z" style="fill:#fff"></path><path d="M413.38,423.88l-.52-.05c-6.48-.64-7.73-2.86-7.64-4.61a7.43,7.43,0,0,1,1.37-3.39l.13-.14c.43-.32.93-.61,1.36-.34a.82.82,0,0,1,.29.95l0,.17c.53-.53,1.07-.87,1.51-.78.27.05.61.25.72.91s.19,1.16.26,1.62c1.12-1.92,1.67-1.85,1.88-1.82s.57.17.69.82a39,39,0,0,1,0,6.13Zm-6.08-7.3a6.21,6.21,0,0,0-1.08,2.69c-.12,2.25,3.2,3.15,6.21,3.51a43.32,43.32,0,0,0,0-5.17A14.67,14.67,0,0,0,411,420l-.73,1.53-.21-1.69s-.16-1.25-.47-3.12v0a9,9,0,0,0-1.91,2.27l-.88-.45A14.48,14.48,0,0,0,407.3,416.58Z" style="fill:#263238"></path><path d="M414.17,365.55l-.75-.66c6.11-7,4.32-19.08,4.3-19.2l1-.16C418.79,346.05,420.6,358.15,414.17,365.55Z" style="fill:#263238"></path><path d="M401.79,379.33l-1-.15a12.21,12.21,0,0,1,4.22-6.85c3.4-2.83,6.28-5.7,6.31-5.73l.7.7s-2.94,2.94-6.37,5.8A11.41,11.41,0,0,0,401.79,379.33Z" style="fill:#263238"></path><path d="M452.63,379.26a61.42,61.42,0,0,0-.19,7.49c.19,3.27,1.54,4.43,1.54,4.43l.77-2.5a6.68,6.68,0,0,0,1.34,2.88c1,1,5.58,3.27,5.58,3.27l-1.73-7.12L458,385S460.9,381,452.63,379.26Z" style="fill:#263238"></path><path d="M462.41,395.76l-1-.48c-.48-.24-4.71-2.38-5.7-3.37a5.11,5.11,0,0,1-1-1.56l-.52,1.7-.58-.49c-.06-.06-1.51-1.34-1.71-4.78a62.42,62.42,0,0,1,.19-7.57l.05-.56.55.12c3.38.7,5.42,1.9,6.06,3.54a3.33,3.33,0,0,1-.18,2.69l1.81,2.6Zm-7.56-9.11.39,1.93a6.19,6.19,0,0,0,1.2,2.63,29.91,29.91,0,0,0,4.48,2.68l-1.45-6L457.4,385l.21-.29a2.35,2.35,0,0,0,.25-2.07c-.34-.85-1.45-2-4.78-2.79a58,58,0,0,0-.14,6.85,7.71,7.71,0,0,0,.85,3.36Z" style="fill:#263238"></path><path d="M346.7,360.22a225,225,0,0,0-14,22.3c-6,11.15-8.26,28.07-8.26,28.07s-5.19,1.16-5.19,4.23,5,5.58,8.65,6.35,7.5,1.92,10.57-1.54,1.35-6.35,3.08-10.77,10.19-20.76,15.38-24.22,9.23-5.19,11.73-10,4.8-11.34,6.92-12.49" style="fill:#b8b8b8"></path><path d="M333.09,422.48a22.39,22.39,0,0,1-4.55-.65l-.79-.17c-3.49-.74-9-3.25-9-6.84,0-3,4-4.3,5.24-4.63.37-2.45,2.8-17.67,8.27-27.9a228.87,228.87,0,0,1,14.07-22.36l.81.59a227.6,227.6,0,0,0-14,22.24c-5.85,10.95-8.18,27.73-8.21,27.9l0,.34-.34.08c-.05,0-4.8,1.1-4.8,3.74,0,2.81,4.92,5.16,8.25,5.86l.79.17c3.42.74,6.65,1.44,9.31-1.55,1.69-1.91,1.83-3.64,2-5.65a16.44,16.44,0,0,1,1-5c1.86-4.74,10.33-21,15.57-24.46,1-.69,2-1.31,3-1.91,3.71-2.33,6.64-4.17,8.58-7.9.75-1.44,1.49-3.05,2.2-4.61,1.78-3.87,3.31-7.21,4.93-8.09l.48.87c-1.33.73-2.94,4.24-4.5,7.63-.72,1.57-1.46,3.2-2.22,4.66-2.06,4-5.1,5.88-8.94,8.29-.94.59-1.92,1.21-2.95,1.89-5,3.33-13.43,19.47-15.2,24a15.63,15.63,0,0,0-.92,4.69c-.17,2.1-.32,4.07-2.24,6.23A7.19,7.19,0,0,1,333.09,422.48Z" style="fill:#263238"></path><path d="M323.63,416.55a4.88,4.88,0,0,0,0-3.07c-.58-1.54-2.5.77-2.5.77a6.67,6.67,0,0,1,.38-2.12c.08-.2-.05-.26-.29-.24a3.61,3.61,0,0,0-2,2.93c0,2.47,3.22,4.57,6.38,5.7a8.87,8.87,0,0,0,.92-4.93C325.94,412.9,323.63,416.55,323.63,416.55Z" style="fill:#fff"></path><path d="M325.86,421.15l-.44-.16a17.37,17.37,0,0,1-3.09-1.45l-.8,1.26.52-1.42c-1.9-1.2-3.34-2.76-3.34-4.56a4,4,0,0,1,2.24-3.35l.11-.07h.11a.79.79,0,0,1,.75.26.67.67,0,0,1,.06.67,3.41,3.41,0,0,0-.19.62,2,2,0,0,1,1.4-.48,1.19,1.19,0,0,1,.91.84,4.71,4.71,0,0,1,.28,1.51,2,2,0,0,1,1.56-.69c.53.09.89.55,1.06,1.37a9.25,9.25,0,0,1-.95,5.23Zm-3-2.45a16.81,16.81,0,0,0,2.46,1.18,7.78,7.78,0,0,0,.7-4.18c-.1-.47-.23-.59-.26-.6-.3-.06-1.12.79-1.71,1.72Zm-2.07-5.89a2.64,2.64,0,0,0-1.08,2c0,1.35,1.16,2.6,2.7,3.6l.75-2a4.43,4.43,0,0,0,0-2.73c0-.09-.09-.19-.14-.2-.29,0-1,.55-1.51,1.12l-.88,1.06v-1.38A7.48,7.48,0,0,1,320.79,412.81Z" style="fill:#263238"></path><path d="M341.26,387.65c-.72,0-2-.74-3.72-2.23-1.39-1.18-3-2.76-2.87-3.57a.74.74,0,0,1,.42-.52c.87-.37,3.48,1.05,5.53,2.31l-.53.85a23.5,23.5,0,0,0-4.31-2.19c.77,1.18,4.62,4.36,5.45,4.36h0a.29.29,0,0,0-.23.22l1,.14a.71.71,0,0,1-.46.59A.79.79,0,0,1,341.26,387.65Z" style="fill:#263238"></path><path d="M340.87,381.79c-.53-1.07-2.68-1.56-3.46-1.65l.12-1c.34.05,3.37.47,4.23,2.2Z" style="fill:#263238"></path><path d="M345.35,364.84s5.77-7.12,10.38-8.65,11.73-6.35,12.69-13.27a16.61,16.61,0,0,0-2.5-11.54s-5.57,12.31-12.3,15.77-12.69,12.5-12.69,12.5S343.62,364.26,345.35,364.84Z" style="fill:#263238"></path><path d="M345.52,365.42l-.33-.11c-1.85-.62-4.41-4.92-4.69-5.41l-.16-.27.17-.26c.25-.37,6.11-9.19,12.88-12.66,6.5-3.35,12-15.41,12.08-15.53l.35-.77.5.67a16.92,16.92,0,0,1,2.6,11.91c-1,7.18-8.34,12.11-13,13.67-4.42,1.47-10.09,8.42-10.15,8.49Zm-4-5.76c1,1.59,2.6,3.9,3.69,4.56,1.18-1.4,6.16-7.11,10.37-8.51,4.45-1.48,11.41-6.13,12.35-12.86A16.64,16.64,0,0,0,366,332.42c-1.4,2.86-6.28,12.16-12.14,15.17S342.55,358.17,341.52,359.66Z" style="fill:#263238"></path><path d="M357.46,312.35a17.49,17.49,0,0,0-12.3-5.19c-7.69,0-22.11,4.23-25.57,6.92s-11.92,17.3-11.73,21.34,0,14.23-3.07,22.69-3.08,12.3-9,12.69-10.19-1.93-11.34-4.62-4-7.69-5-5.57.58,6.15.58,6.15-4.43,1.15-3.66,2.88,3.66,1.16,4.23,1.16,6.73,7.69,15,7.88,13.26-3.08,17.3-8.65,7.31-12.11,9.61-13.08,11.16,0,11.16,0,3.46,7.69,6.72,7.12,4-6.92,8.08-8.85,14.42-5.19,18.65-16S363.62,317.16,357.46,312.35Z" style="fill:#b8b8b8"></path><path d="M296.25,379.19h-.7c-6.71-.16-12-5-14.25-7.13-.33-.31-.68-.63-.84-.75l-.24,0c-1.06.1-3.54.33-4.34-1.47a1.43,1.43,0,0,1,0-1.26c.54-1.12,2.48-1.86,3.44-2.16-.39-1.2-1.22-4.2-.39-6a1.27,1.27,0,0,1,1.1-.8c2.07,0,4.79,6.32,4.82,6.39,1,2.34,4.82,4.69,10.85,4.31,4.56-.3,5.32-2.62,7.18-8.24.41-1.23.86-2.6,1.42-4.12,3.54-9.73,3.1-21.22,3-22.49-.19-4.15,8.29-18.94,11.92-21.76s18.07-7,25.88-7A17.89,17.89,0,0,1,357.81,312c6.08,4.77,14.07,16.42,9.73,27.47-3.79,9.65-12.5,13.43-17.18,15.46-.65.28-1.23.53-1.72.76-1.87.9-3,2.84-4.1,4.72s-2.23,3.84-4.1,4.17c-3.3.6-6.43-5.61-7.15-7.14-2.62-.27-8.89-.72-10.62,0-1.36.56-3.36,3.69-5.46,7-1.19,1.86-2.53,4-3.94,5.91C308.84,376.43,303.57,379.19,296.25,379.19Zm-15.69-8.89c.32,0,.55.21,1.42,1,2.17,2,7.26,6.71,13.59,6.86,7.41.17,12.47-2.35,16.89-8.45,1.39-1.92,2.67-3.92,3.9-5.86,2.39-3.74,4.27-6.69,5.92-7.38,2.4-1,11-.07,11.4,0l.28,0,.12.26c.92,2,3.82,7.22,6.19,6.83,1.41-.25,2.33-1.85,3.41-3.69s2.38-4.09,4.53-5.12L350,354c4.55-2,13-5.64,16.65-14.91,4.15-10.56-3.59-21.76-9.45-26.33l-.07-.07a17.14,17.14,0,0,0-11.93-5c-7.49,0-21.88,4.19-25.26,6.82s-11.72,17.08-11.54,20.92c.06,1.3.5,13-3.1,22.88-.55,1.51-1,2.87-1.41,4.09-1.89,5.72-2.84,8.59-8.07,8.93-6.5.42-10.69-2.26-11.83-4.92-1.25-2.91-3.19-5.77-3.91-5.78h0c-.07,0-.16.18-.18.21-.71,1.58.19,4.7.59,5.77l.2.52-.54.14c-1.08.29-2.95,1-3.31,1.78a.48.48,0,0,0,0,.42c.51,1.15,2.42,1,3.34.89Z" style="fill:#263238"></path><path d="M340.15,317.3l-.74-.67c6.3-6.9,15.82-3.63,15.91-3.6l-.33,1C354.9,313.94,346,310.9,340.15,317.3Z" style="fill:#263238"></path><path d="M333.19,357.19c-1.6-2.93-1.25-3.94-.09-7.3a86.41,86.41,0,0,0,2.54-8.44c2.79-11.16,1.19-15.41,1.17-15.45l.93-.38c.07.18,1.76,4.51-1.13,16.08-1,4.09-1.91,6.65-2.56,8.52-1.16,3.35-1.37,3.95,0,6.49Z" style="fill:#263238"></path><path d="M322.81,357.32l-.67-.73c.17-.17,4.33-4.09,2.36-9.46l.94-.34C327.65,352.8,322.86,357.28,322.81,357.32Z" style="fill:#263238"></path><path d="M322.42,348.49l-.66-.75c.14-.13,3.6-3.14,6.21-1.18l-.6.8C325.4,345.89,322.45,348.46,322.42,348.49Z" style="fill:#263238"></path><path d="M311,333l-.87-.48c.06-.11,1.5-2.65,3.5-2.78a3.19,3.19,0,0,1,2.72,1.57l-.8.59a2.3,2.3,0,0,0-1.86-1.16C312.47,330.79,311.33,332.37,311,333Z" style="fill:#263238"></path><ellipse cx="313.51" cy="340.96" rx="1.8" ry="2.73" style="fill:#263238"></ellipse></g><g id="freepik--elephant-1--inject-2"><path d="M196.86,361.6s-1.42,9.15-2,18.83-3.17,22.07-5.08,25.3c0,0-6.3.53-9.29,3.58s-1.7,7.18-.3,8.08,12.55,4.84,17.75,5,7.61-2,9.56-6.28,4.78-17.22,8.11-24.75S233.15,365,233.15,365s-11.51-8.79-17.43-8.79S196.86,361.6,196.86,361.6Z" style="fill:#b8b8b8"></path><path d="M198.55,422.92H198c-5.21-.18-16.43-4.1-18-5.1a4.82,4.82,0,0,1-1.7-3.39,6.64,6.64,0,0,1,1.92-5.46c2.76-2.81,8.07-3.56,9.33-3.71,1.79-3.34,4.34-15.18,4.89-24.84s1.95-18.8,2-18.89l0-.27.26-.11c.53-.22,13.1-5.42,19.05-5.42s17.26,8.53,17.73,8.89l.4.3-.3.4c-.14.19-14.17,18.87-17.44,26.27a131.6,131.6,0,0,0-5,15.21,89.37,89.37,0,0,1-3.07,9.55C206.21,420.28,203.89,422.92,198.55,422.92Zm-1.24-61c-.23,1.61-1.43,9.9-1.91,18.51-.53,9.39-3.08,22-5.15,25.52l-.13.22-.26,0c-.06,0-6.15.57-9,3.44a5.65,5.65,0,0,0-1.64,4.65A3.84,3.84,0,0,0,180.5,417c1.25.8,12.33,4.77,17.5,5s7.35-2.16,9.09-6a89.25,89.25,0,0,0,3-9.41,132.59,132.59,0,0,1,5.08-15.34c3.09-7,15.14-23.22,17.26-26.06-2.07-1.53-11.65-8.39-16.73-8.39C210.43,356.72,199.17,361.2,197.31,362Z" style="fill:#263238"></path><path d="M215.72,356.22c-5.92,0-18.86,5.38-18.86,5.38s-1.42,9.15-2,18.83a104.94,104.94,0,0,1-1.26,10.88,33.27,33.27,0,0,1,16.4-8.19,45.06,45.06,0,0,1,11.06-1.07c5.28-8.05,12.05-17,12.05-17S221.64,356.22,215.72,356.22Z" style="fill:#263238"></path><path d="M192.91,392.7l.24-1.48a104,104,0,0,0,1.25-10.81c.54-9.6,1.95-18.8,2-18.89l0-.27.26-.11c.53-.22,13.1-5.42,19.05-5.42s17.26,8.53,17.73,8.89l.4.3-.3.4c-.07.09-6.82,9.07-12,17l-.16.24h-.28a45.52,45.52,0,0,0-10.94,1.06A32.77,32.77,0,0,0,194,391.67Zm4.4-30.75c-.23,1.61-1.43,9.9-1.91,18.51-.17,2.89-.52,6.16-1,9.53a34.46,34.46,0,0,1,15.58-7.36,47.18,47.18,0,0,1,10.9-1.09c4.58-7,10.25-14.61,11.61-16.43-2.06-1.53-11.65-8.39-16.73-8.39C210.43,356.72,199.17,361.2,197.31,362Z" style="fill:#263238"></path><path d="M189.27,415.59c-1.48-3.76-3.63,1.08-3.63,1.08a10.29,10.29,0,0,0,.17-4.49c-.44-2.69-4.41,2.69-4.41,2.69a16.23,16.23,0,0,0,0-3.94c-.21-1.43-1.77.81-2.62,2.15-.19,2,.62,3.76,1.48,4.31a60.64,60.64,0,0,0,9.26,3.32A8.35,8.35,0,0,0,189.27,415.59Z" style="fill:#fff"></path><path d="M189.85,421.33l-.49-.14a59,59,0,0,1-9.4-3.38c-1-.64-1.92-2.52-1.71-4.77v-.12l.07-.1c1.68-2.67,2.38-2.94,2.87-2.84.26.06.58.25.67.88a15.26,15.26,0,0,1,.13,2.45c1.05-1.23,2.45-2.59,3.44-2.35.32.08.73.34.86,1.14a11.92,11.92,0,0,1,.16,2.35,1.93,1.93,0,0,1,1.5-.79c.73,0,1.32.6,1.77,1.75h0a8.81,8.81,0,0,1,.25,5.42Zm-10.61-8.08A4.38,4.38,0,0,0,180.5,417a56.82,56.82,0,0,0,8.62,3.12,7.54,7.54,0,0,0-.32-4.31h0c-.27-.7-.59-1.11-.86-1.11-.56-.06-1.43,1.28-1.84,2.21l-.94-.36a9.73,9.73,0,0,0,.15-4.25c0-.27-.11-.33-.11-.33-.37-.11-1.94,1.27-3.4,3.24l-1.14,1.55.25-1.91a16.65,16.65,0,0,0,0-3.72A10,10,0,0,0,179.24,413.25Z" style="fill:#263238"></path><path d="M129.11,336.49s4,17.22,4,22.42-11.4,21.7-14.87,28.16-5.48,17-3.45,20.09,5.43,3.59,10.31,2.51,12.34-3.76,12.86-8.07-.69-10.22-.65-11.12,7.4-10.94,9.42-12,8.08-5,10.24-9.87S160,344,160,344Z" style="fill:#263238"></path><path d="M121,410.68c-3,0-5.15-1.05-6.61-3.24-2.25-3.36,0-14.32,3.42-20.61,1-1.83,2.58-4.42,4.42-7.42,4.38-7.14,10.38-16.91,10.39-20.5,0-5.09-3.94-22.14-4-22.31l-.18-.79,32.11,7.82,0,.41c0,.81-.95,19.88-3.12,24.76-2.6,5.85-10.38,10.06-10.46,10.1-1.79,1-8.9,10.57-9.16,11.64,0,.16.09.82.19,1.59a40.45,40.45,0,0,1,.47,9.53c-.66,5.46-11.15,8-13.25,8.5A19.53,19.53,0,0,1,121,410.68Zm8.8-73.52c.79,3.48,3.84,17.13,3.82,21.75,0,3.87-5.85,13.38-10.54,21-1.83,3-3.41,5.56-4.39,7.37-3.52,6.54-5.33,16.79-3.47,19.57s4.81,3.4,9.79,2.3c5.47-1.2,12-3.93,12.47-7.64a40.17,40.17,0,0,0-.47-9.28,13.81,13.81,0,0,1-.19-1.8c0-1.19,7.69-11.38,9.68-12.44s8-5,10-9.63c1.92-4.32,2.87-21.13,3-24Z" style="fill:#263238"></path><path d="M107.15,243.45s-18.44-.42-25.76-.84-13,6.71-16,13.42-16.19,34.6-16.3,48.65,5.24,27.9,6.9,33.77,6.17,31.24,5,39.21-2.15,12.59.9,15.1,4.34,1.68,4.6.21.52-2.72.52-2.72,2.37-1.47,2.65-3.36l.28-1.89s2.22,2.31,2.92.42.91-1.88-1.61-7.34,1.83-15.1.84-27.89-.91-20.34.37-26.63A65.09,65.09,0,0,1,76,312s5.72-1.46,8.09-3.14,5.29-6.71,5.29-6.71,2.46,1.47,7,3.56S105,312,108.82,316s7.71,18,24.7,28.94,31,17,47.11,18.87,39.23-.42,44.21,1.05,15.74,10.7,20.39,15.31,10.36,25.59,10.3,27.26-5.76,8.18-4.8,10.49,1.15,2.72,8,4.61,18.55-2.51,19.71-5.45,1.46-5.24.31-8.18S276.49,402,272,389s.41-27.68-4.2-38.8-8.46-20.34-7.67-24.74,2.33-11.54,1.47-16.57-1.59-8-1.59-8a89.31,89.31,0,0,1,4.61,11.32c1.68,5.46,4.1,13.64,6.08,16.78s7.66,8.18,7.66,8.18L281.1,341s-3.1-6.71-5.12-8.8-6.1-10.7-7.6-15.31-6.32-21.6-6.32-21.6-.55-18.67-13.74-30.41-25.61-16.15-38.78-17.2-27.89,5.46-35.46,6.08-8.61.21-15-2.09-6.94.42-21.2-5S115.87,240.3,107.15,243.45Z" style="fill:#b8b8b8"></path><path d="M262.46,423.49a14.33,14.33,0,0,1-3.86-.47c-6.91-1.9-7.28-2.37-8.33-4.9-.69-1.64,1.14-4.52,2.91-7.3a13.83,13.83,0,0,0,1.85-3.4c.05-1.36-5.55-22.32-10.15-26.88s-15.28-13.74-20.19-15.19c-2.2-.65-8.45-.53-15.68-.39-8.77.18-19.69.39-28.44-.64-15.26-1.79-29.41-7.46-47.32-18.95-12.41-8-17.82-17.49-21.41-23.79a29,29,0,0,0-3.38-5.22c-3.84-4-7.81-8.12-12.26-10.17-3.43-1.59-5.71-2.83-6.6-3.34-.78,1.27-3.14,5-5.18,6.44s-6.88,2.85-8,3.16A65.34,65.34,0,0,0,73,323.66c-1.25,6.16-1.36,13.58-.36,26.49a73.8,73.8,0,0,1-.92,16.2c-.68,4.93-1.22,8.81,0,11.52,2.42,5.23,2.42,5.61,1.72,7.49l-.09.24a1.5,1.5,0,0,1-1.08,1,2.63,2.63,0,0,1-2-.66l-.15,1c-.26,1.79-2.09,3.18-2.69,3.59-.08.41-.27,1.4-.48,2.51a2.05,2.05,0,0,1-1.24,1.7c-1,.37-2.42-.17-4.17-1.61-3-2.47-2.39-6.63-1.38-13.51l.3-2.05c1.12-7.81-3.28-32.93-5-39-.28-1-.68-2.25-1.14-3.69-2.19-6.92-5.87-18.5-5.78-30.21.1-12.93,11.18-37.42,15.35-46.64.4-.88.74-1.63,1-2.21,3.07-6.91,9-14.17,16.52-13.72,7,.4,24.22.8,25.65.84,8.74-3.13,16.57-2.33,31,3.18,8.6,3.29,12.18,3.58,15.05,3.81a20.84,20.84,0,0,1,6.14,1.22l.26.09c6.09,2.19,7.19,2.58,14.55,2a67.3,67.3,0,0,0,10.34-2.29c7.41-2,16.63-4.48,25.2-3.8,14.9,1.19,26.95,6.53,39.07,17.33,12.81,11.4,13.85,29.47,13.91,30.7.31,1.08,4.85,17.1,6.29,21.52,1.52,4.64,5.57,13.13,7.49,15.12s5.09,8.67,5.21,8.94l2.05,4.44-5.66-7.66c-.56-.49-5.79-5.19-7.72-8.25s-4.07-10.19-5.7-15.48l-.43-1.42a74.67,74.67,0,0,0-2.7-7.15c.2,1,.42,2.23.65,3.56.79,4.62-.36,10.81-1.2,15.33l-.26,1.41c-.77,4.24,3.09,13.52,7.55,24.27l.08.2c2.35,5.67,2.26,12.11,2.17,18.94-.1,6.63-.19,13.48,2,19.88,2.46,7,3.93,11.5,4.91,14.45.85,2.57,1.36,4.12,1.88,5.46,1.27,3.24.8,5.76-.3,8.54S269.32,423.49,262.46,423.49Zm-45.27-59.64a34.11,34.11,0,0,1,7.79.54c5.08,1.5,15.92,10.79,20.6,15.44S256.1,405.52,256,407.46c0,.76-.78,2-2,3.9-1.4,2.2-3.32,5.21-2.83,6.38.9,2.16,1,2.49,7.67,4.32,6.85,1.89,18.1-2.57,19.12-5.15s1.45-4.87.3-7.82c-.53-1.36-1-2.92-1.9-5.5-1-2.95-2.45-7.41-4.9-14.44-2.3-6.57-2.2-13.51-2.1-20.23s.18-13.06-2.09-18.54l-.08-.19c-4.71-11.35-8.43-20.31-7.62-24.83l.26-1.43c.83-4.44,2-10.53,1.2-15-.84-4.95-1.57-7.9-1.57-7.93l-1.1-4.41,2,4.07a89.11,89.11,0,0,1,4.63,11.4l.44,1.41c1.61,5.24,3.81,12.42,5.59,15.24,1.62,2.58,5.87,6.53,7.18,7.72a22.14,22.14,0,0,0-2.63-4c-2.19-2.27-6.29-11.13-7.72-15.5-1.49-4.57-6.27-21.45-6.32-21.62l0-.12c0-.18-.71-18.59-13.58-30.05-11.94-10.64-23.81-15.9-38.48-17.07-8.39-.67-17.53,1.79-24.87,3.77a66.52,66.52,0,0,1-10.51,2.31c-7.58.63-8.7.23-15-2l-.26-.09a20,20,0,0,0-5.88-1.16c-2.94-.24-6.59-.54-15.33-3.88-14.19-5.42-21.85-6.21-30.36-3.14l-.09,0h-.09c-.19,0-18.53-.43-25.78-.84-7-.38-12.61,6.52-15.54,13.12-.26.59-.6,1.34-1,2.22-4.15,9.17-15.16,33.52-15.26,46.24-.09,11.54,3.56,23,5.74,29.89.46,1.46.86,2.71,1.15,3.73,1.73,6.13,6.17,31.5,5,39.42l-.3,2.06c-1,6.53-1.54,10.47,1,12.59,2,1.63,2.88,1.55,3.18,1.44a1.16,1.16,0,0,0,.61-.94c.27-1.47.52-2.73.52-2.73l0-.21.18-.12s2.17-1.37,2.41-3l.43-2.89.71.73c.44.46,1.3,1.09,1.74,1,.06,0,.21-.05.35-.41l.09-.24c.58-1.53.64-1.69-1.69-6.72-1.37-3-.81-7-.11-12.08a71.13,71.13,0,0,0,.91-16c-1-13-.89-20.52.38-26.77a65.81,65.81,0,0,1,3.62-11.64l.09-.22.24-.06c.06,0,5.66-1.46,7.92-3.07S89,302,89,301.92l.26-.44.43.26s2.5,1.48,7,3.54c4.62,2.14,8.66,6.33,12.56,10.38a29.91,29.91,0,0,1,3.53,5.42c3.54,6.22,8.88,15.62,21.08,23.45,18,11.55,31.6,17,46.89,18.8,8.69,1,19.57.8,28.31.63C212,363.91,214.8,363.85,217.19,363.85Z" style="fill:#263238"></path><path d="M281.1,341s-2.69,4.74-1.6,7.35a13.54,13.54,0,0,0,4.1,4.76l.15-3.81a8,8,0,0,0,2.73,3.33c2.3,1.91,7.92,4.53,7.92,4.53s-.27-5.48-2.31-8.33a30.32,30.32,0,0,0-4.57-5l2.15-.24S285.16,337.66,281.1,341Z" style="fill:#263238"></path><path d="M294.94,357.92l-.76-.35c-.23-.11-5.69-2.67-8-4.59a12.58,12.58,0,0,1-2-2l-.11,3-.76-.53a14,14,0,0,1-4.27-5c-1.17-2.81,1.51-7.58,1.63-7.78l.11-.14a4.65,4.65,0,0,1,3.56-1.09c3.1.37,5.62,3.62,5.73,3.76l.54.7-1.93.22a30.39,30.39,0,0,1,3.82,4.33c2.09,2.94,2.38,8.36,2.39,8.59ZM283.36,346.2l.87,2.92a7.79,7.79,0,0,0,2.56,3.09,45.46,45.46,0,0,0,7,4.08c-.16-1.62-.68-5.17-2.14-7.21a31.2,31.2,0,0,0-4.48-4.91l-.89-.75,2.36-.26c-.88-.92-2.58-2.46-4.45-2.67a3.56,3.56,0,0,0-2.73.8c-.34.63-2.44,4.65-1.53,6.83a11.89,11.89,0,0,0,3.18,3.95Z" style="fill:#263238"></path><path d="M108.82,316s2-2.84,8.9-5.89,22-3.23,28.23-11.13,3.76-19,3.27-20.27-4,10.23-17.32,17S104,311.91,104,311.91Z" style="fill:#263238"></path><path d="M108.91,316.74l-5.72-4.89.56-.36c.15-.09,14.7-9.42,27.92-16.17a38.64,38.64,0,0,0,16-15.45c.82-1.37,1-1.79,1.55-1.74a.62.62,0,0,1,.52.41c.67,1.72,2.9,12.83-3.35,20.76-4.3,5.47-12.5,7.28-19.74,8.87a52.25,52.25,0,0,0-8.68,2.4c-6.67,2.94-8.67,5.7-8.69,5.73Zm-4-4.77,3.9,3.33c.83-.93,3.27-3.22,8.76-5.64a51.25,51.25,0,0,1,8.87-2.46c7.07-1.56,15.08-3.33,19.16-8.51,5.35-6.79,4.1-16.27,3.41-19.1-.15.23-.32.52-.48.79a39.51,39.51,0,0,1-16.36,15.83C120.43,302.18,107.67,310.18,104.86,312Z" style="fill:#263238"></path><path d="M102.63,246.59s16.72-9.64,27.15-8.17,21.37,17.19,21.69,31-9.64,27.48-19.4,30.62A126.91,126.91,0,0,0,108.17,311c-2.8,1.88-2.58,7.13-4.7,7.76s-5-1.47-6.65-7.14,4.84-22.64,8.53-31.45,3.58-11.75.83-16.57-2.41-13.84,5.23-16.36" style="fill:#b8b8b8"></path><path d="M102.72,319.34a4.52,4.52,0,0,1-3.09-1.45,14.24,14.24,0,0,1-3.29-6.14c-1.72-5.81,4.62-22.41,8.55-31.79,3.7-8.84,3.49-11.52.86-16.13a13.66,13.66,0,0,1-.84-11.1,9.88,9.88,0,0,1,6.34-6l.32.95a8.9,8.9,0,0,0-5.72,5.39,12.58,12.58,0,0,0,.76,10.24c3,5.19,2.82,8.37-.8,17-3.12,7.45-10.2,25.41-8.51,31.12a13.22,13.22,0,0,0,3,5.71,3.11,3.11,0,0,0,3,1.09c.78-.24,1.23-1.55,1.71-2.95.6-1.73,1.27-3.68,2.85-4.75a129,129,0,0,1,24-11c9.27-3,19.38-16.09,19.06-30.13-.32-13.69-11.05-29.11-21.26-30.55s-26.67,8-26.83,8.12l-.5-.87c.69-.4,17-9.71,27.47-8.24,10.63,1.5,21.79,17.41,22.12,31.52.33,14.48-10.14,28-19.75,31.11a127.32,127.32,0,0,0-23.77,10.84c-1.3.88-1.92,2.67-2.46,4.25s-1.1,3.2-2.37,3.57A3.11,3.11,0,0,1,102.72,319.34Z" style="fill:#263238"></path><path d="M96.71,276v-1c6.93,0,10.5-7.39,10.54-7.47l.9.43C108,268.32,104.28,276,96.71,276Z" style="fill:#263238"></path><path d="M77.08,265.73c-.23-2.38-.91-3.8-2-4.21-1.79-.68-4.53,1.37-5.44,2.22l-.68-.73c.15-.14,3.73-3.46,6.47-2.43,1.5.56,2.39,2.26,2.67,5.05Z" style="fill:#263238"></path><path d="M73.65,269.77c-.06,1.68-.91,3-1.9,3s-1.73-1.36-1.66-3,.91-3,1.89-3S73.72,268.09,73.65,269.77Z" style="fill:#263238"></path><path d="M77.05,281.72c-3.21,0-5.6-.74-7.13-2.2a5,5,0,0,1-1.62-3.36h1a4,4,0,0,0,1.33,2.66c1.49,1.4,4,2,7.39,1.88l0,1Z" style="fill:#263238"></path><path d="M69.49,296.72s.89,4.19-.24,6.5-1.78,2.72,0,4.61,6.51,5.24,8.86,4.19,6.79-7.76,7.78-11.74A33,33,0,0,0,87,294.62" style="fill:#b8b8b8"></path><path d="M77.11,312.72c-2.87,0-6.86-3.17-8.19-4.54-1.75-1.83-1.45-2.61-.54-4.37q.2-.36.42-.81c1-2.13.21-6.14.2-6.18l1-.21c0,.18.91,4.39-.29,6.83-.15.31-.29.58-.42.83-.83,1.59-1,1.83.37,3.21,1.83,1.91,6.29,5,8.3,4.09,2.21-1,6.55-7.6,7.5-11.41a32.84,32.84,0,0,0,1-5.56l1,0a34,34,0,0,1-1.07,5.76c-1,4.19-5.56,11-8.06,12.08A3,3,0,0,1,77.11,312.72Z" style="fill:#263238"></path><rect x="85.74" y="290.88" width="1" height="7.47" transform="translate(-220.22 312.47) rotate(-77.02)" style="fill:#263238"></rect><path d="M68.38,306.77s-6.93,10.64-11.91,13.53-7.92,4.56-7.06,5.93,8.07-.31,16.26-4A31.12,31.12,0,0,0,78.14,312S73.67,311.63,68.38,306.77Z" style="fill:#fff"></path><path d="M51.06,327.2c-1,0-1.76-.21-2.08-.71a1.43,1.43,0,0,1-.18-1.1c.35-1.42,2.89-2.9,7.11-5.34l.31-.19C61,317.07,67.9,306.6,68,306.49l.32-.49.43.4c5.09,4.67,9.42,5.12,9.47,5.13l.82.07-.45.7a31.45,31.45,0,0,1-12.68,10.43C61.21,324.8,54.51,327.2,51.06,327.2Zm17.42-19.67c-1.44,2.15-7.29,10.61-11.76,13.2l-.31.18c-3.57,2.07-6.39,3.71-6.64,4.72a.39.39,0,0,0,.06.33c.47.75,6.42,0,15.64-4.14a31.25,31.25,0,0,0,11.8-9.44A20.33,20.33,0,0,1,68.48,307.53Z" style="fill:#263238"></path><path d="M150.9,329.49a84,84,0,0,0,3.24,13.81,31.33,31.33,0,0,1,1.28,13.81l-6-2S149.83,334,150.9,329.49Z" style="fill:#263238"></path><path d="M155.81,357.77l-6.92-2.31v-.37c0-.86.44-21.23,1.51-25.72l.63-2.66.35,2.71a84.93,84.93,0,0,0,3.23,13.73,31.6,31.6,0,0,1,1.29,14.05Zm-5.9-3,5.09,1.71a31.61,31.61,0,0,0-1.33-13,89,89,0,0,1-2.74-10.7C150.28,339.42,150,352.39,149.91,354.74Z" style="fill:#263238"></path><path d="M116.45,319.61s-1.34,43.61,1.3,53.24,11,35.49,10.94,37-4.09,4.82-3.3,7.82,2.82,4.82,10.61,5.72,19.07-3.31,20.44-7.82-5.21-13.24-5.69-16.54-2.16-38.5-1.35-43.92,2.28-12.63,2-21.35,4.06-20.16,9.58-22.86" style="fill:#b8b8b8"></path><path d="M138.27,424a22.15,22.15,0,0,1-2.33-.12c-8.14-.95-10.21-2.95-11-6.09-.55-2.12.93-4.23,2.13-5.93a6.44,6.44,0,0,0,1.16-2c0-.85-2.85-10.12-5.36-18.3-2.17-7-4.4-14.33-5.56-18.54-2.64-9.59-1.38-51.6-1.32-53.39l1,0c0,.43-1.31,43.64,1.28,53.08,1.16,4.2,3.39,11.48,5.55,18.52,3.38,11,5.44,17.74,5.41,18.63a5.92,5.92,0,0,1-1.34,2.57c-1.08,1.53-2.42,3.44-2,5.11.73,2.78,2.57,4.46,10.19,5.34s18.62-3.23,19.91-7.47c.81-2.67-1.51-7.2-3.38-10.85a22.19,22.19,0,0,1-2.33-5.47c-.49-3.41-2.17-38.58-1.36-44.06.13-.87.28-1.79.43-2.75a94,94,0,0,0,1.58-18.52c-.27-8.59,3.89-20.39,9.86-23.32l.44.9c-5.06,2.48-9.59,13.37-9.3,22.39a94.72,94.72,0,0,1-1.59,18.7c-.15,1-.3,1.88-.43,2.74-.8,5.43,1,41,1.36,43.77a22.48,22.48,0,0,0,2.23,5.17c2.05,4,4.37,8.54,3.44,11.59C155.63,420,146.13,424,138.27,424Z" style="fill:#263238"></path><path d="M136.25,417.67c-1.42-2.16-3.1,2.66-3.1,2.66a9.43,9.43,0,0,0-1.84-4c-1.43-1.66-2.59,2.49-2.59,2.49a5.73,5.73,0,0,0-1.23-2.66c-.64-.66-.88,2-1,3.82,1.35,1.65,4,2.75,9.49,3.39.47.05.95.09,1.45.11C137.39,421.69,137.14,419,136.25,417.67Z" style="fill:#fff"></path><path d="M138,424l-.54,0c-.51,0-1-.06-1.49-.11-5.35-.63-8.29-1.69-9.82-3.57l-.12-.15V420c.19-3.72.63-4.19,1.06-4.35a.7.7,0,0,1,.78.22,4.5,4.5,0,0,1,.91,1.43c.37-.79.91-1.63,1.61-1.79a1.31,1.31,0,0,1,1.32.54,9.09,9.09,0,0,1,1.56,2.79c.48-1,1.2-2.07,2.06-2.18a1.38,1.38,0,0,1,1.36.78c.93,1.42,1.21,4.09,1.28,6.07Zm-9.35-3a21.64,21.64,0,0,0,7.44,1.83l.86.08a11.2,11.2,0,0,0-1.09-5h0c-.07-.1-.25-.34-.39-.33-.51.06-1.35,1.54-1.81,2.88L133,422.3l-.34-1.88a9,9,0,0,0-1.73-3.75c-.08-.1-.23-.25-.34-.22-.44.1-1.07,1.38-1.39,2.52Zm-1.6-1.23a5.6,5.6,0,0,0,1.56,1.2l-.35-2.11a5.69,5.69,0,0,0-.85-2.09A15.75,15.75,0,0,0,127,419.82Z" style="fill:#263238"></path><path d="M129,376.69c-4.87,0-7.51-.7-7.85-2.08a.73.73,0,0,1,.15-.66c1-1.25,9.37-1,12.91-.8l0,1c-5.08-.24-10.92-.17-12,.37.43.59,2.64,1.18,6.82,1.18Z" style="fill:#263238"></path><path d="M127.51,378.48a21.4,21.4,0,0,1-3.58-.31l.16-1c7.24,1.21,10.88-1.77,10.92-1.8l.65.76C135.52,376.26,132.85,378.48,127.51,378.48Z" style="fill:#263238"></path><path d="M263.5,416.49c-.63-2.33-4.43,3.23-4.43,3.23s1.21-3.59-1.22-5.74-3.57,4.3-3.57,4.3-.78-3-1.42-5c-.46-1.4-1.23,3.05-1.63,5.77.76,1.41,1.91,2,7.5,3.51a15,15,0,0,0,4.33.45C263.38,421.45,264,418.23,263.5,416.49Z" style="fill:#fff"></path><path d="M262.51,423.5a14.53,14.53,0,0,1-3.91-.48l-1-.27-.15.21.08-.23c-4.82-1.36-6-2-6.75-3.46l-.08-.15,0-.16c1-6.39,1.41-6.42,1.88-6.46.19,0,.54,0,.72.6.31,1,.66,2.17.93,3.17.41-1.29,1.09-2.78,2.13-3.15a1.75,1.75,0,0,1,1.79.48,5.31,5.31,0,0,1,1.7,4.19c1-1.24,2.29-2.51,3.22-2.36a1.13,1.13,0,0,1,.88.93c.49,1.8-.06,5-.44,6.73l-.08.39h-.95Zm-4.31-1.62.66.18a13,13,0,0,0,3.79.44c.3-1.5.77-4.36.36-5.88h0a.48.48,0,0,0-.09-.21c-.46-.12-2.09,1.62-3.44,3.59Zm-6.45-2.95c.6,1,1.61,1.58,6.1,2.85l.75-2.22s1.07-3.31-1.08-5.21c-.46-.4-.71-.31-.8-.28-.87.3-1.66,2.7-2,4.3l-.4,2.28-.57-2.24s-.6-2.32-1.17-4.19A47.69,47.69,0,0,0,251.75,418.93Z" style="fill:#263238"></path><path d="M219.3,345.73c0-.05-.92-1.4-3-8.39-1.48-5,1.27-13.5,3.28-19.71l.16-.49,1,.31-.16.49c-2,6.09-4.66,14.42-3.27,19.12,2,6.72,2.82,8.06,2.85,8.12Z" style="fill:#263238"></path><path d="M221.49,313.42l-1-.31c.55-1.63.91-2.63.91-2.63l.94.35S222,311.82,221.49,313.42Z" style="fill:#263238"></path><path d="M213.09,351.72l-.53-.84a26,26,0,0,0,2.35-1.67,8.85,8.85,0,0,1,.82-.59l.52.85c-.18.11-.42.3-.73.53A25.21,25.21,0,0,1,213.09,351.72Z" style="fill:#263238"></path><path d="M189,356.77c-6.22,0-6.71-.91-6.89-1.27a.77.77,0,0,1,.05-.84l.79.61a.22.22,0,0,0,0-.24c.09.12,1.19,1.21,12.41.51a40.72,40.72,0,0,0,14.51-3.26l.42.91a42,42,0,0,1-14.87,3.35C192.84,356.7,190.72,356.77,189,356.77Z" style="fill:#263238"></path><path d="M226.41,364.86c-2.09-1.6-5.73-4.83-5.77-4.86l.67-.75s3.65,3.24,5.71,4.82Z" style="fill:#263238"></path></g><g id="freepik--Floor--inject-2"><polygon points="737.64 423.96 720.13 422.42 722.08 418.84 714.46 419.67 714.46 417.46 708.49 419.67 708.82 415.79 707.6 416.48 704.85 418.01 703.52 414.96 701.53 418.56 698.22 415.79 698.22 418.29 693.25 415.79 693.91 419.67 686.96 416.35 685.63 419.39 682.65 416.9 677.35 419.12 675.03 416.9 667.41 418.84 666.41 415.79 663.76 418.29 662.11 416.07 658.79 418.29 655.15 417.46 650.51 419.95 650.18 417.73 644.22 419.12 643.22 416.9 638.25 419.12 635.93 416.63 627.98 419.12 625 416.63 621.36 418.01 618.37 416.07 616.05 418.29 611.42 416.07 610.09 419.39 606.12 417.46 597.17 419.67 598.5 416.63 591.21 418.01 579.28 419.67 577.95 416.35 573.65 419.95 571.66 417.46 567.35 419.95 564.37 416.35 562.71 418.84 560.39 416.9 558.41 419.12 555.09 416.9 547.47 419.67 544.16 418.84 541.51 419.67 539.85 417.73 534.55 419.39 532.89 417.18 528.59 419.12 529.58 415.52 524.61 418.56 520.3 415.52 518.98 419.12 516 416.9 511.03 420.5 509.7 418.01 497.44 420.78 496.78 418.84 488.5 419.95 486.18 418.01 481.54 419.12 480.88 417.18 476.53 419 476.61 418.84 475.25 418.99 472.93 416.07 471.27 419.39 468.99 418.44 468.99 417.46 467.74 417.92 467.3 417.73 467.23 418.11 465.07 418.92 463.16 418.15 463.36 415.79 462.14 416.48 460.81 417.21 459.34 416.63 458.92 416.95 458.06 414.96 456.07 418.56 452.76 415.79 452.76 418.29 447.79 415.79 448.38 419.23 447.65 419.29 444.51 417.79 444.76 417.46 444.03 417.56 441.49 416.35 440.76 418.02 438.85 418.3 437.19 416.9 431.88 419.12 429.57 416.9 426.97 417.56 426.87 416.63 421.79 418.36 420.95 415.79 418.3 418.29 417.11 416.69 416.94 416.07 416.75 416.21 416.64 416.07 413.33 418.29 409.95 417.52 408.98 416.63 408.84 417.91 407.03 418.88 404.72 417.75 404.72 417.73 404.69 417.74 404.68 417.73 404.66 417.75 400.8 418.64 399.38 417.46 398.06 417.57 397.76 416.9 395.81 417.77 393.08 418.01 391.99 418.25 390.47 416.63 389.03 417.08 389.11 416.9 381.07 417.9 379.54 416.63 375.89 418.01 372.91 416.07 370.59 418.29 365.95 416.07 364.84 418.87 361.94 417.73 361.55 417.89 360.65 417.46 356.86 418.4 356.64 417.73 351.78 419.51 353.03 416.63 351.33 416.95 351.33 416.07 347.97 417.59 345.74 418.01 341.71 418.57 339.08 414.96 336.43 418.84 334.11 417.18 333.77 419.39 333.69 419.35 332.49 416.35 330.78 417.78 328.14 416.35 327.81 419.39 327.72 419.36 326.2 417.46 324.69 418.33 320.52 416.9 319.64 417.24 318.91 416.35 317.87 417.91 316.88 418.29 317.21 415.79 310.95 417.79 309.63 416.9 303.09 419.28 302.63 417.18 299.17 418.96 298.7 418.84 298.29 418.97 297.99 415.79 294.93 418.36 294.39 417.73 293.99 417.86 293.02 415.24 288.19 418.2 287.43 417.18 286.37 417.66 283.8 416.69 284.12 415.52 282.81 416.32 281.43 415.79 281.94 416.86 279.15 418.56 274.84 415.52 273.52 419.12 270.54 416.9 265.56 420.5 264.24 418.01 251.98 420.78 251.32 418.84 243.04 419.95 240.72 418.01 236.08 419.12 235.42 417.18 230.12 419.39 227.46 416.07 225.81 419.39 221.83 417.73 221.5 419.67 213.88 416.63 208.91 420.5 204.27 419.12 197.65 419.67 199.3 417.46 181.74 419.95 181.41 416.63 172.47 419.67 171.47 416.07 166.83 419.67 163.52 416.63 163.19 419.67 159.21 417.73 156.56 419.67 153.91 417.46 147.62 418.01 142.65 419.12 143.64 416.9 121.44 419.67 116.47 417.73 111.83 419.67 111.17 417.73 105.87 419.67 105.87 416.07 97.26 419.95 93.61 414.96 90.96 418.84 88.64 417.18 88.31 419.39 82.68 416.35 82.35 419.39 75.06 416.9 71.42 418.29 71.75 415.79 57.83 420.23 57.17 417.18 52.86 419.39 52.53 415.79 48.89 418.84 47.56 415.24 42.59 418.29 35.97 415.79 37.95 419.95 28.68 420.78 34.77 422.42 13.12 425.5 264.25 424.69 258.58 425.5 737.64 423.96" style="fill:#2E8B57"></polygon><path d="M258.58,426l-.06-.79L13.12,426l-.07-1,19.23-2.74-6.45-1.74,11.36-1L35,414.89l7.56,2.84,5.28-3.23,1.29,3.5,3.83-3.2.35,3.81,4.23-2.17.68,3.14,14.15-4.5L72,417.52l3-1.15,6.87,2.35.34-3.17,5.66,3.07.35-2.32,2.57,1.84,2.76-4,3.82,5.23,9-4V419l5.11-1.87.66,1.91,4.33-1.81,5,2,23-2.86-1,2.11,4-.89,6.56-.58,2.51,2.1,2.58-1.89,3.61,1.76.36-3.32,3.73,3.43,4.9-3.8,1.05,3.81,9-3.08.34,3.43,18.23-2.59-1.71,2.29,5.61-.47,4.49,1.34,5-3.9,7.31,2.93.33-2,4.13,1.72,1.8-3.6,2.9,3.64,5.45-2.28.68,2,4.44-1.06,2.35,1.95,8.47-1.13.65,1.9,12.19-2.75,1.24,2.32,4.8-3.48,2.74,2,1.32-3.59,4.57,3.24,2.12-1.3-.85-1.78,2.32.87,2.18-1.33-.54,1.95,2,.73,1.23-.55.73,1,5-3,1,2.74.27-.08.42.5,3.42-2.86.33,3.53.38.1,3.87-2,.48,2.18,6.24-2.27,1.33.89,6.78-2.16-.33,2.44.06,0,1.32-2,.94,1.13.71-.27,4.13,1.41,1.68-1,1.12,1.4.29-2.66,3,1.62,2-1.65.84,2.1.19-1.32,2.57,1.84,2.76-4,2.88,3.94,3.73-.52,2.14-.41,4-1.81v1l2-.38-1.17,2.68,4.24-1.55.25.71,3.52-.87.86.42.36-.16,2.63,1,1.13-2.83,4.81,2.3,2.35-2.25,3.1,2,3.68-1.4,1.59,1.33,8.58-1.07.82-.26,1.54,1.65.81-.18,2.72-.24,2.32-1,.36.8,1.17-.1,1.39,1.16,3.52-.82.17-.12.12,0,.35-.08.06.28,1.87.91,1.36-.73.21-2,1.6,1.47,3,.69,3.53-2.36.09.12.37-.29.34,1.24.81,1.08,2.81-2.65.93,2.83,5.2-1.77.1,1,2.3-.59,2.28,2.18,5.28-2.21,1.73,1.45,1.42-.2.82-1.9,2.87,1.37,1.78-.25-.61.81,2.47,1.18h0l-.66-3.87,5.13,2.57v-2.75l3.67,3.06,2.18-4,1,2.33.14-.1,1.52.6,3.16-1.76-.25,2.92,1.39.56,1.71-.64.12-.71.84.35,1.74-.64v1.37l1.54.64,1.8-3.6,2.64,3.31,1.41-.15,4.3-1.8.69,2,4.44-1.06,2.34,1.95,8.47-1.13.65,1.9,12.2-2.75,1.23,2.32,4.8-3.48,2.74,2,1.32-3.59,4.57,3.24,5.77-3.54-1,3.8,3.71-1.67,1.68,2.25,5.28-1.65,1.66,1.94,2.47-.78,3.3.83,7.71-2.8,3.16,2.11,2-2.25,2.27,1.89,1.72-2.59,3.14,3.79,4.31-2.49,1.94,2.43,4.44-3.72,1.44,3.6,11.54-1.6,8.19-1.56-1.3,3,8.14-2,3.66,1.78,1.32-3.32,4.81,2.3,2.35-2.25,3.11,2,3.68-1.4,3,2.51,8-2.51,2.3,2.47,5.09-2.28,1,2.3,6.09-1.42.31,2.05,4.18-2.24,3.62.82,3.52-2.36,1.61,2.15,2.82-2.65,1.09,3.35,7.43-1.89,2.29,2.18,5.28-2.21,2.7,2.26,1.26-2.91,6.56,3.14-.67-3.9,5.13,2.57v-2.75l3.67,3.06,2.19-4,1.5,3.48,4.32-2.41-.34,4,5.9-2.19v2.38l8-.88-2,3.75,16.74,1.47,0,1Zm5.67-1.81.06.79,462.35-1.48-7.33-.65,1.85-3.41-7.22.79v-2.05l-6,2.24.32-3.73-3.64,2-1.14-2.63-1.79,3.25-3-2.48v2.24l-4.81-2.42.66,3.86L687.21,417l-1.39,3.19-3.26-2.73-5.32,2.23-2.36-2.25-7.8,2-.9-2.74L663.7,419,662,416.75l-3.1,2.07-3.67-.83-5.1,2.74-.35-2.39-5.84,1.36-1-2.14-4.84,2.16-2.35-2.52-7.91,2.48-3-2.48-3.6,1.37-2.87-1.86-2.28,2.18-4.47-2.14-1.32,3.33-4.3-2.09-9.75,2.41,1.35-3.11-6.36,1.21L579,420.22l-1.21-3.05-4.18,3.49-2-2.56-4.3,2.49-2.83-3.4-1.59,2.39-2.38-2-2,2.17L555,417.46l-7.53,2.74-3.33-.84-2.83.89-1.65-1.94L534.36,420l-1.62-2.18L527.82,420l.94-3.4-4.17,2.55-4-2.86-1.33,3.62-3.23-2.4-5.13,3.73-1.42-2.67-12.32,2.79-.68-2-8.09,1.08-2.3-1.91-4.84,1.15-.63-1.86L475.41,420l.31-.57-.69.08L473,417l-1.51,3-3-1.26v-.6l-.76.28-.05,0v0l-2.61,1-2.43-1,.15-1.79-1.93,1.08-1.43-.57-.7.54-.71-1.65-1.79,3.25-3-2.48v2.24l-4.81-2.42.51,3-1.4.11L441.75,417l-.64,1.46-2.41.34-1.6-1.34-5.32,2.23-2.36-2.25-2.89.73-.09-.89-5,1.7-.75-2.3L418.24,419l-1.71-2.29-3.1,2.07-3.72-.84-.34-.32-.06.56L407,419.44l-2.41-1.17-4,.92L399.21,418l-1.46.13-.24-.54-1.65.71-2.74.24-1.3.3-1.5-1.61-2.21.69.17-.38-7.36.92-1.48-1.23-3.61,1.37L373,416.71l-2.28,2.18-4.47-2.14-1.1,2.76-3.18-1.24-.4.17-.94-.45-4.06,1-.21-.61-5.48,2,1.35-3.09-1.37.26v-.71l-2.77,1.24-2.22.42-4.35.61-2.4-3.28-2.54,3.72-2.07-1.49-.31,2.11-.88-.47-1-2.53-1.44,1.21-2.28-1.24-.32,2.93-.82-.28-1.35-1.69-1.33.78-4.21-1.45-1,.4-.54-.64-.75,1.13-1.93.73.34-2.54-5.73,1.83-1.32-.88L302.72,420l-.44-2-3,1.57-.52-.13-.87.27-.26-2.84-2.71,2.27-.65-.75-.54.17-.92-2.49-4.69,2.88-.8-1.07-.88.4-3.2-1.21.11-.38-.43.26-.45-.17.16.35-3.45,2.11-4-2.86-1.33,3.62-3.23-2.4-5.14,3.73L264,418.58l-12.33,2.79-.67-2-8.1,1.08-2.29-1.91-4.84,1.15-.63-1.86L230,420l-2.4-3-1.51,3-3.83-1.6-.33,1.93L214,417.2l-5,3.86-4.79-1.44-7.64.64,1.6-2.14-16.88,2.4L181,417.3l-8.86,3-.93-3.4-4.38,3.41-2.9-2.67-.3,2.77-4.34-2.11-2.73,2L153.75,418l-6.09.54-5.88,1.31,1-2.31-21.44,2.67-4.9-1.91-4.94,2.07-.68-2-5.49,2v-3.55l-8.28,3.73-3.46-4.74-2.54,3.72L89,418.06l-.32,2.11-5.6-3-.32,2.93-7.71-2.64-4.26,1.62.34-2.54-13.69,4.36-.64-2.95-4.39,2.26-.31-3.39-3.46,2.89L47.3,416l-4.66,2.85L37,416.7l1.76,3.68-7.19.65,5.73,1.54L20.34,425Z" style="fill:#263238"></path></g></svg>
